<svg version="1.2" xmlns="http://www.w3.org/2000/svg" viewBox="0 0 512 512" width="512" height="512">
	<title>black-cat(1)</title>
	<style>
		.s0 { fill: #000000 } 
	</style>
	<path id="Path 0" fill-rule="evenodd" class="s0" d="m484.5 58.1c1.6-0.1 5.4 1 8.3 2.4 3.2 1.6 5.9 3.7 7.2 5.7 1 1.8 2.2 4.8 2.5 6.5 0.3 1.8 0.1 5.1-0.5 7.3-0.6 2.3-2.4 5.4-4.3 7.1-1.7 1.7-6.8 5.3-11.2 7.9-4.4 2.7-9.4 6.3-11.2 8.2-1.9 2-3.8 5.6-4.9 9.3-1.4 4.8-1.6 8.7-1.3 20 0.2 7.7 0.4 21.7 0.3 31 0 16.3-0.2 17.4-3.2 26.5-1.7 5.2-5.2 13.1-7.7 17.5-2.5 4.4-7 11.2-9.9 15-2.9 3.8-8.1 10.1-11.7 13.9-3.5 3.8-10.2 10.1-14.9 14-4.7 3.9-11.5 9.1-15.2 11.6-4.2 2.8-7.3 5.7-8.3 7.7-1.3 3-1.3 4.3 0 13 0.8 5.6 1.5 16.6 1.5 25.5 0 8.7-0.6 19.3-1.3 23.5-0.6 4.3-1.2 12.5-1.1 18.3 0 8.2 0.8 13.4 3.3 24 2.6 10.7 3.2 14.8 2.8 20-0.3 3.6-1.5 10.1-2.7 14.5-1.2 4.4-4.2 12.5-6.5 18-2.4 5.5-6 12.9-8.1 16.5-2.1 3.6-4.8 7.5-6.1 8.8-1.9 1.9-3.2 2.2-10 2.2-6 0-8.2-0.4-9.6-1.8-1-0.9-1.8-2.5-1.7-3.5 0-0.9 1.5-3.4 3.4-5.5 3.1-3.5 3.5-4.8 6.5-21.2 2.8-15.3 3.1-18.1 2.1-22.5-0.6-2.8-2.1-6.5-3.3-8.4-1.2-1.9-6.3-7-11.2-11.3-4.9-4.3-9.3-7.8-9.8-7.8-0.4 0-0.7 1.1-0.7 2.5 0 1.4-1.2 8.5-2.6 15.7-1.9 9.4-3.8 15.8-6.6 21.8-2.1 4.7-6 11.9-8.5 16-2.6 4.1-7.1 10.8-10 14.7-2.9 4-6.2 8.2-7.3 9.3-1.7 1.7-3.3 2-9.7 2-5 0-8.3-0.4-9.1-1.2-0.7-0.7-1.2-2.2-1.2-3.3 0-1.1 1.4-3.4 3.1-5 1.7-1.6 3.7-4.1 4.4-5.5 0.7-1.4 2.7-7.2 4.5-13 2-6.7 3.3-13.7 3.6-19.5 0.6-9 0.6-9-3.6-17.5-2.3-4.7-7.8-15-12.3-22.9-4.5-7.9-8.6-14.6-9.2-14.8-0.6-0.2-12.7 1.4-27 3.6-14.3 2.2-30.3 4.5-35.5 5.2-5.2 0.6-17.5 1.3-27.3 1.5-9.7 0.2-18.2 0.7-18.8 1.1-0.7 0.5-1 2.2-0.6 4.3 0.3 1.9 1.3 7.3 2.1 12 0.9 4.7 2.1 14.1 2.6 21 0.7 8.9 0.7 16-0.1 24.5-0.6 6.6-1.9 14.7-2.9 18-1.1 3.3-3 7.2-4.4 8.7-2.6 2.8-2.7 2.8-14.4 2.5-11.7-0.2-11.7-0.2-12-2.7-0.2-1.9 0.8-3.5 8.5-10.5l-1.4-7c-0.7-3.9-2.5-10.8-3.9-15.5-1.4-4.7-4.3-12.1-6.5-16.5-2.2-4.4-6.2-11-8.9-14.8-2.8-3.7-5.3-6.4-5.8-6.1-0.4 0.4-1.9 5.2-3.3 10.8-1.4 5.5-4 13.7-5.8 18.1-1.8 4.4-5.3 11.8-7.8 16.5-2.5 4.7-7.2 12.3-10.3 17-3.1 4.7-6.3 9.1-7.1 9.7-1 0.9-4.6 1.2-22.4 0.8l-0.3-4.3c-0.2-3.8 0.2-4.6 4.2-8.5 2.4-2.3 5.3-6.2 6.4-8.7 1.1-2.5 3-9.2 4.1-15 1.1-5.8 2.7-17 3.5-25 0.8-8 2-24.9 3.8-60.5l-2.8-6.5c-1.6-3.6-5.4-9.9-8.5-14-3.1-4.1-8.3-9.9-11.5-12.9-3.3-3-9.3-7.6-13.4-10.3-5.2-3.4-10.8-5.9-18.5-8.3-6.2-1.9-13.1-4.8-15.9-6.7-2.7-1.8-5.9-5.1-7.2-7.3-1.2-2.2-2.5-5.6-2.9-7.5-0.5-2.3-0.1-4.8 0.9-7.3 0.9-2 3.6-5.8 6-8.5 3.8-4 4.7-5.8 5.9-11.7 0.8-3.8 2.5-9 3.7-11.5 1.3-2.5 4.2-6.5 6.6-9 2.3-2.5 6.5-5.8 9.2-7.5 4.9-3 5-3 6.7-11 0.9-4.4 2.7-10.4 4.1-13.3 1.9-4.1 3.1-5.4 5.6-6.2 2.1-0.7 4.3-0.7 5.8-0.2 1.4 0.5 4.7 3.3 7.4 6.3 2.7 3 9 11.7 14.1 19.4 5.2 7.9 11.5 16.2 14.6 19.1 3 2.8 8.3 6.7 11.9 8.7 3.6 2 10.2 5 14.7 6.7 4.6 1.6 12.7 3.9 18 5 5.4 1.1 16.4 2.4 24.5 3 10 0.7 20.5 0.7 32.5 0 9.8-0.6 33.5-2.8 52.8-5 19.3-2.1 41.3-4.4 49-5.1 7.7-0.6 21.6-0.9 31-0.7 10.1 0.3 21 1.2 27 2.3 8.8 1.7 10.7 1.7 16 0.6 3.3-0.8 9.6-3.2 14-5.5 4.4-2.3 10.7-6.2 14-8.7 3.3-2.6 9.6-8.4 14-13 4.4-4.6 10.2-11.8 12.8-15.9 2.5-4.1 5.9-10.9 7.4-15 2.4-6.8 2.7-8.8 2.7-21 0.1-7.4-0.1-22.1-0.3-32.5-0.2-15.4 0-20.1 1.4-25 0.9-3.3 2.8-8.2 4.3-11 1.5-2.7 5.4-7.8 8.7-11.3 3.3-3.5 7.6-7.4 9.5-8.5 1.9-1.2 6.2-3.2 9.5-4.4 3.3-1.2 7.4-2.2 9-2.2zm-449.6 172.2c-1.6 1.7-2.1 3.2-1.6 4.2 0.5 1 2.2 1.5 5.5 1.5 2.6 0.1 5.3-0.5 6-1.2 0.7-0.7 1.1-2.4 1-3.7-0.2-1.3-1.2-2.9-2.3-3.6-1.2-0.8-2.9-1-4.2-0.5-1.1 0.4-3.2 1.9-4.4 3.3z"/>
</svg>