<svg version="1.2" xmlns="http://www.w3.org/2000/svg" viewBox="0 0 512 512" width="512" height="512">
	<title>cat-whiskers(2)</title>
	<style>
		.s0 { fill: white; } 
	</style>
	<path id="Path 0" class="s0" d="m246.5 199.2c-2.2 1.1-4.9 2.8-5.9 3.7-1 0.9-6.2 2.6-11.5 3.8-8.4 1.9-10 2.6-12.4 5.5-1.5 1.8-3.2 5.1-3.8 7.3-0.6 2.2-0.9 6.5-0.6 9.5 0.2 3 1.2 7.1 2.2 9 1 1.9 7.4 9.2 14.4 16.1 6.9 7 14.2 13.4 16.1 14.4 1.9 1 5.7 2 8.5 2.3 2.8 0.3 7.2-0.1 10-0.8 4.4-1.2 6.7-3 18.8-14.9 7.7-7.5 14.8-15.4 15.9-17.6 1.1-2.2 2.3-6 2.5-8.5 0.4-2.8 0-6.4-1.1-9.5-0.9-2.7-2.6-6.3-3.9-7.8-1.8-2.3-3.9-3.2-11.7-5-5.2-1.2-10.9-3.2-12.5-4.3-1.7-1.2-4.8-2.9-7-3.8-2.2-0.9-6.3-1.6-9-1.6-3 0.1-6.6 0.9-9 2.2zm-100 53.5c-3.3 0.2-13 1-21.5 1.9-8.5 0.8-21.8 2.4-29.5 3.5-7.7 1.1-21 3.3-29.5 4.9-8.5 1.5-25.4 4.9-37.5 7.5-12.1 2.5-23.1 5.2-24.4 5.8-1.3 0.7-2.9 2-3.5 2.9q-1.1 1.7-0.1 2.8c0.5 0.6 2.6 1.4 4.5 1.8 2.3 0.5 6.3 0.2 11.5-1 4.4-1 14.7-2.9 23-4.2 8.2-1.4 20.8-3.2 28-4 7.2-0.8 19.5-2 27.5-2.7 8-0.6 30.9-1.4 50.8-1.8l36.4-0.6c3.7-4.3 4.8-6.6 4.8-8 0-1.4-0.5-3.5-1-4.7-0.6-1.3-2.1-2.9-3.5-3.5-1.7-0.9-6.9-1.2-16.3-1.1-7.5 0.1-16.4 0.3-19.7 0.5zm183 0.3c-1.1 0.5-2.6 2.1-3.3 3.5-0.6 1.4-1.2 3.6-1.2 5 0 1.4 1.1 3.7 2.4 5.3l2.4 2.7c56.3 1 79.2 1.8 87.2 2.4 8 0.7 20.4 1.9 27.5 2.7 7.1 0.8 19.7 2.6 28 4 8.2 1.3 18.6 3.2 23 4.2 5.2 1.2 9.2 1.5 11.5 1 1.9-0.4 3.9-1.2 4.5-1.8q1-1.1-0.1-2.8c-0.6-0.9-2.2-2.2-3.5-2.9-1.3-0.6-13-3.4-25.9-6.2-12.9-2.7-31.4-6.3-41-8-9.6-1.7-22.4-3.7-28.5-4.6-6.1-0.8-17.5-2.2-25.5-3-8-0.9-23.7-1.8-35-2-12.9-0.3-21.2-0.2-22.5 0.5zm-164.5 23.9c-5.8 1.5-15 4.2-20.5 6.1-5.5 1.8-16.5 5.9-24.5 9-8 3.2-19.3 8.1-25.3 10.9-5.9 2.8-11 5.9-11.4 6.9-0.3 0.9-0.2 2.4 0.4 3.2 0.6 0.8 2.8 1.6 4.9 1.8 2.1 0.1 5.2-0.4 6.9-1.2 1.7-0.8 5.7-2.5 9-3.9 3.3-1.4 9.2-3.5 13-4.6 3.8-1.2 9.9-2.9 13.5-3.7 3.6-0.8 16.7-3.5 29.2-6 12.6-2.4 23.7-4.8 24.8-5.4 1.1-0.5 2.5-2.2 3-3.7 0.7-1.9 0.7-3.8 0-6-0.5-1.8-2-4-3.3-4.8-1.2-0.8-3.8-1.5-5.7-1.4-1.9 0-8.2 1.3-14 2.8zm162.3-1.4c-1.3 0.8-2.8 3-3.3 4.8-0.7 2.2-0.7 4.1 0 6 0.5 1.5 1.9 3.2 3 3.7 1.1 0.6 12.5 3 25.2 5.5 12.8 2.5 28.2 5.8 34.3 7.4 6 1.6 14.6 4.3 19 6.1 4.4 1.7 9.4 3.8 11 4.6 1.6 0.8 4.8 1.3 6.9 1.2 2.1-0.2 4.3-1 4.9-1.8 0.6-0.8 0.7-2.3 0.4-3.2-0.4-1-5.3-4-11-6.7-5.6-2.6-17-7.5-25.2-10.8-8.3-3.3-20-7.7-26-9.6-6.1-2-15.5-4.8-21-6.2-5.5-1.3-11.4-2.5-13-2.5-1.6 0-4 0.7-5.3 1.5zm-287.2-62.2c-2.7 0.9-3.5 1.7-3.5 3.7 0 2 0.8 2.8 3.5 3.7 1.9 0.7 6.2 1.2 9.5 1.3 3.3 0 12.5 0.7 20.5 1.5 8 0.8 20 2.4 26.7 3.5 6.8 1.1 17.6 3.1 24 4.5 6.5 1.4 16.1 3.7 21.3 5.1 5.2 1.4 15.1 4.4 22 6.6 6.9 2.2 13.7 4.1 15.2 4.2 1.4 0 3.6-0.8 4.7-1.9 1.2-1.1 2.4-3.3 2.7-5 0.4-1.8 0-4.3-1-6.2-1.1-2.4-2.8-3.7-5.9-4.8-2.3-0.8-8.3-2.6-13.2-4-5-1.4-14.9-3.6-22-5-7.2-1.3-16.8-2.8-21.5-3.4-4.7-0.6-19.3-1.7-32.5-2.5-13.2-0.8-29.2-1.7-35.5-2q-11.5-0.5-15 0.7zm413.5-0.6c-3.9 0.2-18 1-31.5 1.8-13.5 0.9-29.9 2.2-36.5 3.1-6.6 0.8-17.2 2.6-23.5 3.9-6.3 1.4-15.3 3.6-20 5-4.7 1.4-9.8 3.1-11.4 3.8-1.6 0.6-3.5 2.6-4.3 4.2-0.9 1.7-1.3 4.3-0.9 6 0.3 1.7 1.5 3.9 2.7 5 1.1 1.1 3.3 1.9 4.7 1.9 1.5-0.1 8.3-2 15.2-4.2 6.9-2.2 16.8-5.2 22-6.6 5.2-1.4 14.8-3.7 21.2-5.1 6.5-1.4 17.3-3.4 24-4.5 6.8-1.1 18.8-2.7 26.8-3.5 8-0.8 17.2-1.5 20.5-1.5 3.3-0.1 7.6-0.6 9.5-1.3 2.7-0.9 3.5-1.7 3.5-3.7 0-2-0.8-2.8-3.5-3.7-1.9-0.7-5.3-1.1-7.5-1-2.2 0-7.2 0.2-11 0.4z"/>
</svg>