<svg version="1.2" xmlns="http://www.w3.org/2000/svg" viewBox="0 0 2880 2880" width="2880" height="2880" preserveAspectRatio="none">
	<title>catbg3</title>
	<style>
		.s0 { fill: #000000 } 
		.s1 { fill: #ff6f00 } 
		.s2 { opacity: 1;fill: #ff6f00 } 
	</style>
	<g id="Background">
		<path id="Path 0" class="s0" d="m248 44.8c0.1 24.6 0.7 68.3 1.5 97.2 0.8 28.9 1.9 66.4 2.5 83.5 0.5 17.1 1.8 48.8 3 70.5 1.1 21.7 2 43.8 2 49-0.1 5.2 1.6 44.6 3.7 87.5 2 42.9 4.1 78.1 4.5 78.3 0.4 0.1 0.8 4.7 0.8 10.2 0 6 0.4 10 1 10 0.6 0 1 4 1 10 0 8 0.3 10.1 1.5 10.5 1.2 0.4 1.5 2.5 1.5 10.5 0 8 0.3 10.1 1.5 10.5 1.2 0.4 1.5 2.4 1.5 10 0 5.7 0.4 9.5 1 9.5 0.6 0 1 4 1 10 0 8 0.3 10.1 1.5 10.5 1.2 0.4 1.5 2.4 1.5 10 0 7.6 0.3 9.6 1.5 10 1.2 0.4 1.5 2.5 1.5 10.5 0 8 0.3 10.1 1.5 10.5 1.2 0.4 1.5 2.4 1.5 10 0 8.5 0.2 9.6 2 10.5 1.8 0.9 2 2 2 10.5 0 9.4 0 9.5 2.8 10.8 2.6 1.2 2.7 1.6 3 9.2 0.2 7.6 0.3 8.1 3 9.5 1.5 0.8 2.9 1.6 3.2 1.8 0.3 0.2 0.7 4.5 1 9.5 0.5 8.7 0.6 9.1 3 9.7 2.4 0.6 2.5 1 3 10 0.5 8.7 0.7 9.6 2.8 10.5 2.1 0.9 2.2 1.6 2.2 10.3 0 8.8 0.1 9.3 2.5 10.7 2.3 1.4 2.5 2 2.5 9.8l-0.1 8.2 9.2 5-0.1 15.5c5.4 0 7.2 0.5 7.5 1 0.3 0.5 1.5 1 2.8 1 1.2 0 3-0.6 3.9-1.3 1.4-0.9 1.7-2.8 1.8-8.7 0-7.4 0.1-7.5 3.3-9.1l3.2-1.6c0.5-19 0.7-19.9 2.8-20.8 2-0.9 2.2-1.8 2.5-9 0.3-7.9 0.3-8 3.7-10.2l3.5-2.3c0-17.5 0.1-18.1 2.5-19.5 2.4-1.4 2.5-2 2.5-10 0-7.2 0.3-8.6 1.8-9.1 0.9-0.3 2.7-1.1 4-1.7 2.1-1.1 2.3-1.9 2.2-9.4 0-7.3 0.2-8.4 2-9.3 1.8-0.9 2-2 2-10.5 0-9.4 0-9.5 2.8-10.8 2.6-1.2 2.7-1.6 3-9.2 0.2-4.4 0.9-8.6 1.5-9.3 0.7-0.7 2-1.3 3-1.2 0.9 0 2.6-0.6 3.7-1.2 1.7-1.1 2.5-1 4.7 0.5 1.6 1 3.6 2 4.6 2.3 1.4 0.3 1.7 1.6 1.7 8.9 0 8.1 0.1 8.5 2.5 9.5 2.4 1 2.5 1.3 2.5 10.5 0 8.7 0.2 9.5 2 10 1.8 0.5 2 1.3 2 10 0 8.5 0.2 9.6 2 10.5 1.8 0.9 2 2 2 9.3l-0.1 8.2 7.6 4.1c0.5 17.2 0.5 17.4 3 17.4 1.4 0 2.7 0.5 3 1 0.3 0.5 1.3 1 2.3 1 0.9 0 2.9-0.5 4.4-1.2 2.7-1.3 2.8-1.6 2.8-9.3 0.1-6.4 0.4-8.2 1.8-9.2 0.9-0.7 2.7-1.3 4-1.3 1.2 0 2.4-0.5 2.7-1 0.3-0.5 2.1-1 4-1h3.5c0.5-16.1 0.6-16.4 3.5-18 2.9-1.6 3-1.9 3.3-9.6 0.2-7.6 0.3-8 3.2-9.6 3-1.8 3-1.9 3-10.8 0-7.8 0.3-9.2 2-10.7 1.7-1.6 2-3 2-10.5 0-7.8 0.2-8.9 2-9.8 1.8-0.9 2-2 2-11 0-8 0.3-10.1 1.5-10.5 1.2-0.4 1.5-2.4 1.5-9.5 0-7.1 0.3-9.1 1.5-9.5 1.2-0.4 1.5-2.6 1.5-11 0-8.4 0.3-10.6 1.5-11 1.2-0.4 1.5-2.4 1.5-10 0-5.7 0.4-9.5 1-9.5 0.6 0 1-4 1-10 0-8 0.3-10.1 1.5-10.5 1.2-0.4 1.5-2.5 1.5-10.5 0-6 0.4-10 1-10 0.6 0 1-4 1-10 0-6 0.4-10 1-10 0.6 0 1-4.2 1-10.5 0-6.3 0.4-10.5 1-10.5 0.6 0 1-4 1-10 0-6 0.4-10 1-10 0.6 0 1-3.7 1-9.2-0.1-7.2 0.3-9.6 1.5-10.8 1.2-1.2 1.6-3.6 1.5-11.2 0-5.6 0.4-10 1-10.3 0.6-0.3 1.3-8.9 1.8-20.5 0.5-14.5 1-20.1 2-20.5 0.8-0.3 1.2-3.3 1.2-10 0-5.7 0.4-9.5 1-9.5 0.6 0 1-4 1-10 0-9 0.2-10.1 2-11 1.8-0.9 2-2 2-10 0-8.7 0.1-9 2.5-10 2.4-1 2.5-1.3 2.5-10.5 0-5.7 0.4-9.5 1-9.5 0.6 0 1.2-7.8 1.5-20.5 0.3-12.7 0.9-20.5 1.5-20.5 0.6 0 1-6.3 1-16.7 0-9.3 0.4-25.1 1-35.3 0.5-10.2 1.4-45.9 2-79.5 0.7-36.9 0.8-75.5 0.3-97.8l-0.8-36.7h-278.5zm1185-35.3c0 5.3-0.5 10.3-1 11.3-0.5 1-1.9 22.4-3.1 47.7-1.8 37.5-2.3 63-2.7 137.5-0.3 54.2 0 111.1 0.6 139.5 0.7 26.4 1.7 60.8 2.4 76.3 0.7 15.5 1.6 28.3 2 28.3 0.4 0 1 8.7 1.3 19.4 0.3 11.5 0.9 19.8 1.5 20 0.5 0.3 1 4.9 1 10.5 0 8 0.3 10.2 1.5 10.5 1.2 0.4 1.5 2.5 1.5 10.5 0 6 0.4 10 1 10 0.6 0 1 4 1 10 0 7.1 0.3 10.2 1.2 10.6 0.9 0.3 1.5 6 2 20.5 0.4 11 1.1 19.9 1.5 19.9 0.4 0 1.2 9.2 1.6 20.3 0.5 11.1 1.2 20.5 1.6 20.7 0.4 0.3 3.8 64.7 7.6 143 3.7 78.4 7.1 142.8 7.5 143 0.3 0.3 3.4 59.9 6.8 132.5 3.4 72.6 7 155 8.1 183 1.1 28.1 2.7 70 3.6 93 0.8 23.1 2.2 60.5 3 83 0.8 22.6 2.4 63.5 3.5 91 1.1 27.5 2.6 69 3.5 92 0.8 23.1 3.4 83 5.7 133 2.3 50.1 4.5 91.3 4.8 91.5 0.4 0.3 1.1 9.7 1.6 20.8 0.5 11.1 1.2 20.3 1.6 20.3 0.4 0 1 9.2 1.3 20.4 0.3 12.7 0.8 20.5 1.5 20.5 0.6 0 1.2 7.9 1.5 20.5 0.3 12.7 0.8 20.5 1.5 20.5 0.6 0 1.2 7.7 1.5 20 0.3 12.4 0.8 20 1.5 20 0.6 0 1.2 7.9 1.5 20.5 0.3 12.7 0.8 20.5 1.5 20.5 0.6 0 1 4.2 1 10.5 0 6.4 0.4 10.5 1 10.5 0.6 0 1 4 1 10 0 6 0.4 10 1 10 0.6 0 1 4.2 1 10.5 0 6.4 0.4 10.5 1 10.5 0.6 0 1 4 1 10 0 6 0.4 10 1 10 0.6 0 1 4 1 10 0 6 0.4 10 1 10 0.6 0 1 4.2 1 10.5 0 6.4 0.4 10.5 1 10.5 0.6 0 1 3.9 1 9.5 0 7.6 0.3 9.7 1.5 10 1.2 0.5 1.5 2.6 1.5 11 0 6.4 0.4 10.5 1 10.5 0.6 0 1 4 1 10 0 6 0.4 10 1 10 0.6 0 1 4 1 10 0 8 0.3 10.1 1.5 10.5 1.2 0.4 1.5 2.5 1.5 10 0 7.6 0.3 9.7 1.5 10 1.2 0.4 1.5 2.5 1.5 10 0 8.7 0.1 9.6 2 10 1.8 0.5 2 1.4 2 10.5 0 8 0.3 10.1 1.5 10.5 1.2 0.4 1.5 2.5 1.5 10 0 8.7 0.1 9.6 2 10 1.8 0.5 2 1.4 2 11 0 6.4 0.4 10.5 1 10.5 0.6 0 1 3.9 1 9.5 0 7.6 0.3 9.7 1.5 10 1.2 0.5 1.5 2.6 1.5 11 0 6.4 0.4 10.5 1 10.5 0.6 0 1 4 1 10 0 6 0.4 10 1 10 0.6 0 1 4 1 10 0 5.5 0.3 10 0.7 10 0.4 0 1.1 9 1.5 20 0.4 11.6 1.2 20.3 1.8 20.5 0.5 0.3 1 5 1 11 0 6.4 0.4 10.5 1 10.5 0.6 0 1.2 7.7 1.5 20 0.2 11 0.8 20 1.2 20 0.4 0 1.4 13.9 2.2 30.8 0.7 16.9 1.7 31 2 31.2 0.4 0.3 1.7 21.7 3 47.5 1.9 39.3 2.4 64.4 3.1 152.5 0.4 58.1 0.8 105.7 0.9 105.8 0 0.1 150.1 0.2 333.6 0.2h333.5c0-6.5-0.5-20.1-1.2-34.5-0.6-14.3-1.5-26.2-1.8-26.5-0.4-0.2-1.4-14.1-2.1-30.7-0.8-16.6-1.8-30.3-2.2-30.3-0.4 0-1-9.2-1.2-20.5-0.3-11.2-0.9-20.4-1.3-20.4-0.4 0-1.1-9-1.5-20-0.4-11.6-1.2-20.3-1.7-20.6-0.6-0.2-1-4.8-1-10.5 0-5.6-0.5-10.2-1-10.5-0.6-0.2-1-4.6-1-10 0-7.5-0.3-9.6-1.5-10-1.2-0.4-1.5-2.5-1.5-10.5 0-6-0.4-10-1-10-0.6 0-1-4.1-1-10.5 0-6.3-0.4-10.5-1-10.5-0.6 0-1-4-1-10 0-6-0.4-10-1-10-0.6 0-1-4.1-1-10.5 0-6.3-0.4-10.5-1-10.5-0.6 0-1-4-1-10 0-6-0.4-10-1-10-0.6 0-1-4.1-1-10.5 0-6.3-0.4-10.5-1-10.5-0.6 0-1-3.8-1-9.5 0-7.5-0.3-9.6-1.5-10-1.2-0.4-1.5-2.5-1.5-10.5 0-6-0.4-10-1-10-0.6 0-1-4.1-1-10.5 0-6.3-0.4-10.5-1-10.5-0.6 0-1-3.8-1-9.5 0-7.5-0.3-9.6-1.5-10-1.2-0.4-1.5-2.5-1.5-11 0-6.3-0.4-10.5-1-10.5-0.6 0-1-4-1-10 0-8.2-0.3-10-1.5-10-1.3 0-1.5-1.7-1.5-10 0-6-0.4-10-1-10-0.6 0-1-4-1-10 0-8-0.3-10-1.5-10.5-1.2-0.3-1.5-2.4-1.5-10 0-7.5-0.3-9.6-1.5-10-1.2-0.4-1.5-2.5-1.5-11 0-6.3-0.4-10.5-1-10.5-0.6 0-1-3.8-1-9.5 0-7.3-0.4-9.6-1.5-10.2-1.1-0.6-1.5-3.2-1.7-10.7-0.3-9.7-0.4-10-2.8-10.5-2.4-0.6-2.5-1-2.8-9.3-0.2-8.1-0.4-8.9-2.7-10.3-2.4-1.4-2.5-1.9-2.5-10.5 0-7.1-0.3-9.1-1.5-9.5-1.2-0.4-1.5-2.5-1.5-10.5 0-5.6-0.5-10.2-1-10.5-0.6-0.2-1-4.6-1-10 0-7.5-0.3-9.6-1.5-10-1.2-0.4-1.5-2.5-1.5-10.5 0-8-0.3-10-1.5-10.5-1.2-0.3-1.5-2.4-1.5-10 0-7.5-0.3-9.6-1.5-10-1.2-0.4-1.5-2.5-1.5-10.5 0-8-0.3-10-1.5-10.5-1.2-0.3-1.5-2.3-1.5-9.7 0-7.2-0.3-9.6-1.5-10.8-1.3-1.1-1.6-3.5-1.6-10.7 0-5.5-0.3-9.3-0.9-9.3-0.6 0-1-4-1-10 0-7-0.4-10.1-1.3-10.5-0.9-0.3-1.4-6.1-2-21-0.4-12.5-1.1-20.5-1.7-20.5-0.6 0-1-4-1-10 0-6-0.4-10-1-10-0.6 0-1-4.1-1-10.5 0-6.3-0.4-10.5-1-10.5-0.6 0-1.2-7.5-1.5-19.5-0.3-11.4-0.9-19.7-1.5-20-0.6-0.2-1-5-1-11 0-6.3-0.4-10.5-1-10.5-0.6 0-1-4-1-10 0-6-0.4-10-1-10-0.6 0-1-4.1-1-10.5 0-6.3-0.4-10.5-1-10.5-0.7 0-1.2-7.8-1.5-20.5-0.3-12.6-0.9-20.5-1.5-20.5-0.6 0-1-4-1-10 0-6-0.4-10-1-10-0.7 0-1.2-7.8-1.5-20.5-0.3-11.2-0.9-20.4-1.3-20.4-0.4 0-1.4-13.8-2.2-30.6-0.9-16.7-1.8-30.5-2-30.5-0.3 0.1-1.2-13.7-2-30.5-0.9-16.7-1.8-30.5-2-30.5-0.3 0.1-1.2-13.8-1.9-30.7-0.8-16.9-1.7-31-2.1-31.3-0.4-0.2-3.8-64.6-7.5-143-3.8-78.3-7.2-142.7-7.6-143-0.4-0.2-1.3-14.1-2-30.7-0.8-16.6-1.8-30.3-2.2-30.3-0.4 0-1-9.2-1.2-20.5-0.3-11.2-0.9-20.4-1.3-20.4-0.4 0-1.4-13.8-2.2-30.6-0.9-16.7-1.9-30.5-2.3-30.5-0.4 0-1-9.2-1.2-20.5-0.3-12.6-0.9-20.5-1.5-20.5-0.6 0-1-4-1-10 0-6-0.4-10-1-10-0.6 0-1-4.1-1-10.5 0-6.3-0.4-10.5-1-10.5-0.6 0-1-4-1-10 0-6-0.4-10-1-10-0.6 0-1-4.1-1-10.5 0-6.3-0.4-10.5-1-10.5-0.6 0-1-4-1-10 0-6-0.4-10-1-10-0.6 0-1-4-1-10 0-6-0.4-10-1-10-0.7 0-1.2-7.8-1.5-20.5-0.3-12.6-0.9-20.5-1.5-20.5-0.6 0-1-4.1-1-10.5 0-6.3-0.4-10.5-1-10.5-0.7 0-1.2-7.8-1.5-20.5-0.3-12.6-0.9-20.5-1.5-20.5-0.6 0-1-4-1-10 0-6-0.4-10-1-10-0.7 0-1.2-7.6-1.5-20-0.3-11.8-0.9-20.2-1.5-20.5-0.6-0.2-1-4.6-1-10 0-5.3-0.5-9.7-1-10-0.6-0.2-1-5-1-11 0-6.3-0.4-10.5-1-10.5-0.6 0-1-4-1-10 0-6-0.4-10-1-10-0.6 0-1-4.1-1-10.5 0-6.3-0.4-10.5-1-10.5-0.6 0-1.2-7.5-1.5-19.5-0.3-11.4-0.9-19.7-1.5-20-0.6-0.2-1-5-1-11 0-6.3-0.4-10.5-1-10.5-0.7 0-1.2-7.8-1.5-20.5-0.3-12.6-0.9-20.5-1.5-20.5-0.6 0-1-4-1-10 0-5.5-0.4-9.9-0.8-9.9-0.4 0-1.1-9-1.5-20-0.4-11.6-1.2-20.3-1.7-20.6-0.6-0.2-1-4.6-1-10 0-5.3-0.5-9.7-1-10-0.6-0.2-1-4.8-1-10.5 0-5.6-0.5-10.2-1-10.5-0.6-0.2-1-4.5-1-9.7 0-7.2-0.3-9.6-1.5-10.8-1.3-1.1-1.6-3.5-1.6-11.2 0-5.9-0.3-9.8-0.9-9.8-0.6 0-1-4-1-10 0-6-0.4-10-1-10-0.6 0-1-4-1-10 0-6-0.4-10-1-10-0.6 0-1-4.1-1-10.5 0-6.3-0.4-10.5-1-10.5-0.6 0-1-4-1-10 0-6-0.4-10-1-10-0.6 0-1-4.1-1-10.5 0-6.3-0.4-10.5-1-10.5-0.6 0-1-4-1-10 0-6-0.4-10-1-10-0.6 0-1-4.1-1-10.5 0-6.3-0.4-10.5-1-10.5-0.6 0-1-4-1-10 0-6-0.4-10-1-10-0.6 0-1-4-1-10 0-6-0.4-10-1-10-0.7 0-1.2-7.8-1.5-20.5-0.3-12.6-0.9-20.5-1.5-20.5-0.7 0-1.2-7.8-1.5-20.5-0.3-12.6-0.9-20.5-1.5-20.5-0.7 0-1.2-7.8-1.5-20.5-0.3-12.6-0.9-20.5-1.5-20.5-0.7 0-1.2-7.8-1.5-20.5-0.3-11.2-0.9-20.4-1.3-20.4-0.4 0-1.4-13.8-2.2-30.5-0.9-16.8-1.9-30.6-2.3-30.6-0.4 0-1-9.2-1.2-20.5-0.3-12.6-0.9-20.5-1.5-20.5-0.7 0-1.2-7.8-1.5-20.5l-0.5-20.5h-564zm849.1 21.3c-0.6 16.9-1.6 56.4-2.1 87.8-0.6 31.3-1.3 79-1.6 106-0.3 26.9-0.1 80.9 0.5 120 0.5 39 1.5 83.8 2.1 99.5 0.5 15.6 2.6 64 4.5 107.5 2 43.4 4 79.7 4.5 80.7 0.5 1 1 6.2 1 11.7 0 6 0.4 10 1 10 0.6 0 1 4 1 10 0 5.7 0.4 10.3 1 10.5 0.5 0.3 1 4.9 1 10.5 0 6 0.4 10 1 10 0.6 0 0.9 3.8 0.9 9.3 0 7.2 0.3 9.6 1.6 10.7 1.2 1.2 1.5 3.6 1.5 10.3 0 6.9 0.3 8.9 1.5 9.2 1.2 0.4 1.5 2.5 1.5 10.5 0 8 0.3 10.2 1.5 10.5 1.2 0.4 1.5 2.5 1.5 10 0 7.6 0.3 9.7 1.5 10 1.2 0.4 1.5 2.5 1.5 10.5 0 9 0.2 10.2 2 11 1.7 0.9 2 2 2 10 0 8 0.2 9.2 2 10 1.7 0.9 2 2 2 10 0 8 0.2 9.2 2 10.3 1.7 1.1 2 2.3 2 10.5 0 7.3 0.3 9.4 1.5 9.7 1.2 0.4 1.5 2.5 1.5 10 0 7.6 0.3 9.7 1.5 10 1.2 0.4 1.5 2.5 1.5 10.5 0 8 0.3 10.2 1.5 10.5 1.2 0.4 1.5 2.5 1.5 10 0 8.5 0.2 9.7 2 10.5 1.8 0.9 2 2 2 11 0 8.3 0.2 10 1.5 10 0.8 0 1.7 0.7 2 1.5 0.2 0.9 0.5 5.2 0.5 9.5 0 7 0.2 8.2 2 9 1.7 0.9 2 2.2 2.2 10.2 0.3 9.1 0.3 9.2 3.3 10.8 2.9 1.7 3 2 3.2 9.6 0.3 7.6 0.4 8 3 9.3 1.5 0.8 3.6 1.8 4.5 2.3 1 0.5 2.4 0.8 3.3 0.8 1.2 0 1.5 1.6 1.5 8 0 7.4 0.1 8 2 8 1.1 0 3.3 0.9 5 2 2.9 2 3 2.2 3 10.5v8.5l7 3c0 16.5 0.1 17.1 2.5 18.5 2.4 1.5 2.5 2 2.5 11.5 0 8.3 0.2 10 1.5 10 1.2 0 1.5 1.8 1.5 9.5 0 9.1 0.1 9.6 2.5 11 2.3 1.5 2.5 2 2.5 10.5 0 8.9 0 9.1 2.7 10.3 2.6 1.2 2.8 1.7 3.3 9.7 0.4 8.1 0.6 8.5 3.5 10.1 2.9 1.6 3 1.8 3.2 10.3 0.3 8.2 0.4 8.7 2.8 9.6 2.4 1 2.5 1.4 2.4 9.8 0 8.1 0.2 8.8 2.3 9.9 1.2 0.7 3.7 1.8 5.5 2.5l3.3 1.3v15.5c4.2 0 5.9 0.4 6.5 1 0.5 0.5 2.2 1.1 3.6 1.2 1.5 0.2 3.1 0.7 3.5 1.1 0.5 0.5 1.7 0.8 2.6 0.8 1 0 3.3-1 5.3-2.1 1.9-1 4.1-2 5-2 1.2 0 1.5-1.5 1.5-8v-8c4.3 0 6-0.4 6.5-0.9 0.5-0.5 2.9-1.1 5.2-1.2 2.3-0.2 4.9-0.8 5.7-1.4 1-0.7 1.5-3.5 1.7-9.4l0.4-8.5 7.5-4.1c0-13.9 0.3-15.5 1.5-15.5 0.8 0 2.5-0.5 3.7-1.1 1.3-0.6 2.9-1.5 3.8-1.9 1.1-0.5 1.5-2.8 1.7-9.3l0.3-8.7 7-3c0-14.8 0.4-16.7 1.8-17.7 0.9-0.6 2.3-1.2 3.2-1.2 0.8 0 2.7-0.6 4.2-1.3 2.6-1.2 2.8-1.6 2.8-8.8 0-4.1 0.3-7.9 0.7-8.5 0.4-0.5 1.7-1.4 2.8-2.1 1.7-0.9 2-2.4 2.5-9.8 0.4-7.5 0.8-9 2.5-9.9 1.1-0.5 2.6-1.3 3.5-1.7 1.1-0.5 1.5-2.7 1.7-8.8 0.3-7.8 0.4-8.2 3.3-10.2 2.9-1.9 3-2.1 3-10.2-0.1-8.1 0-8.3 3-10 3-1.7 3-1.8 3-11 0-8.6 0.1-9.3 2.2-10.3 2-0.9 2.3-1.8 2.8-9.9 0.4-8.6 0.6-9 3-9.6 2.4-0.5 2.5-0.8 2.7-10.2 0.2-8.6 0.5-9.9 2.3-10.8 1.7-0.8 2-2 2-10 0-8 0.2-9.1 2-10 1.8-0.8 2-2 2-11 0-8 0.3-10.1 1.5-10.5 1.2-0.3 1.5-2.3 1.5-9.5 0-8 0.2-9.1 2-10 1.8-0.8 2-2 2-10.5 0-8.5 0.2-9.6 2-10.5 1.8-0.8 2-2 2-10.5 0-7.5 0.3-9.6 1.5-10 1.2-0.3 1.5-2.3 1.5-9.5 0-7.1 0.3-9.1 1.5-9.5 1.2-0.4 1.5-2.5 1.5-11 0-8.4 0.3-10.5 1.5-11 1.2-0.3 1.5-2.4 1.5-10 0-5.6 0.4-9.5 1-9.5 0.6 0 1-4.1 1-10.5 0-6.3 0.4-10.5 1-10.5 0.6 0 1-3.8 1-9.5 0-7.5 0.3-9.6 1.5-10 1.2-0.4 1.5-2.5 1.5-11 0-6.3 0.4-10.5 1-10.5 0.6 0 1-4 1-10 0-8 0.3-10.1 1.5-10.5 1.2-0.3 1.5-2.4 1.5-10 0-5.6 0.4-9.5 1-9.5 0.6 0 1-4.1 1-10.5 0-6.3 0.4-10.5 1-10.5 0.6 0 0.9-3.7 0.9-9.2 0-7.2 0.3-9.6 1.6-10.8 1.2-1.1 1.5-3.5 1.5-11.2 0-5.9 0.4-9.8 1-9.8 0.6 0 1-4 1-10 0-5.6 0.4-10.2 1-10.5 0.5-0.2 1-4.8 1-10.5 0-6 0.4-10 1-10 0.6 0 1-4 1-10 0-6 0.4-10 1-10 0.6 0 1-4 1-10 0-6 0.4-10 1-10 0.6 0 1-4.1 1-10.5 0-6.3 0.4-10.5 1-10.5 0.6 0 1-4 1-10 0-8 0.3-10.1 1.5-10.5 1.2-0.3 1.5-2.5 1.5-10.5 0-6 0.4-10 1-10 0.6 0 1-4 1-10 0-8 0.3-10.1 1.5-10.5 1.2-0.3 1.5-2.4 1.5-10 0-5.6 0.4-9.5 1-9.5 0.6 0 0.9-3.8 0.9-9.7 0-7.7 0.3-10.1 1.6-11.3 1.2-1.1 1.5-3.5 1.5-10.7 0-7.4 0.3-9.4 1.5-9.8 1.2-0.3 1.5-2.4 1.5-10 0-7.5 0.3-9.6 1.5-10 1.2-0.3 1.5-2.4 1.5-10 0-7.5 0.3-9.6 1.5-10 1.2-0.3 1.5-2.5 1.5-10.5 0-8 0.3-10.1 1.5-10.5 1.2-0.3 1.5-2.5 1.5-10.5 0-8.2 0.2-10 1.5-10 1.2 0 1.5-1.7 1.5-9.5 0-8.5 0.2-9.6 2-10.5 1.8-0.8 2-2 2-10.5 0-7.5 0.3-9.6 1.5-10 1.2-0.3 1.5-2.5 1.5-10.5 0-9.1 0.1-10 2-10.5 1.8-0.4 2-1.3 2-10 0-8.5 0.2-9.6 2-10.5 1.8-0.8 2-2 2-10.5 0-9.1 0.1-9.5 2.2-9.7 2.1-0.2 2.3-0.7 2.6-9.8 0.2-6.1 0.7-10 1.6-11 1-1 1.6-6.9 2.2-20.7 0.5-10.6 1.2-19.3 1.6-19.3 0.4 0 1-9.7 1.3-21.7 0.2-12 0.9-34.6 1.4-50.3 0.6-15.6 1.3-42.7 1.6-60.2l0.5-31.8h-375.7zm-1991.2 1788.5c-1 0.9-1.3 3.4-1.2 9 0.2 7.4 0.1 7.9-2.3 9.3-2.4 1.4-2.5 2-2.5 10.5 0 7.8-0.3 9.2-2 10.7-1.7 1.6-2 3-2 10.5 0 8.6 0 8.8-2.7 10.1-2.7 1.2-2.8 1.5-3 10.5-0.3 8.1-0.5 9.3-2.3 10.2-1.8 0.9-2 2-2 10 0 8-0.2 9.1-2 10-1.8 0.9-2 2-2 11 0 8-0.3 10.1-1.5 10.5-1.2 0.4-1.5 2.4-1.5 10 0 7.6-0.3 9.6-1.5 10-1.2 0.4-1.5 2.4-1.5 10 0 7.8-0.3 9.5-1.5 9.5-1.2 0-1.5 1.8-1.5 10 0 9-0.2 10.1-2 11-1.8 0.9-2 2-2 10.2 0 8.7-0.1 9.4-2.2 10.3-2.1 0.9-2.3 1.7-2.5 10.2l-0.3 9.3-7.9 3.5c-0.6 15.6-0.7 15.9-3.6 17.5-3 1.6-3 1.8-3.2 10.8-0.3 8.8-0.4 9.2-2.8 10.2-2.4 1-2.5 1.3-2.5 10.5 0 7.6-0.3 9.6-1.5 10-1.2 0.4-1.5 2.4-1.5 10 0 7.6-0.3 9.6-1.5 10-1.2 0.4-1.5 2.5-1.5 10.5 0 8-0.3 10.1-1.5 10.5-1.2 0.4-1.5 2.4-1.5 10 0 7.8-0.3 9.5-1.5 9.5-1.2 0-1.5 1.8-1.5 10 0 8-0.3 10.1-1.5 10.5-1.2 0.4-1.5 2.5-1.5 10.5 0 8-0.3 10.1-1.5 10.5-1.2 0.4-1.5 2.5-1.5 10.5 0 6-0.4 10-1 10-0.6 0-1 3.7-0.9 9.2 0 7.2-0.4 9.6-1.6 10.8-1.2 1.2-1.6 3.6-1.5 10.7 0 5.6-0.4 9.3-1 9.3-0.6 0-1 4.2-1 10.5 0 6.3-0.4 10.5-1 10.5-0.6 0-1 4-1 10 0 6-0.4 10-1 10-0.6 0-1 4.2-1 10.5 0 6.3-0.4 10.5-1 10.5-0.6 0-1 4-1 10 0 5.5-0.3 10-0.7 10-0.5 0-1.5 13.7-2.3 30.5-0.8 16.8-1.7 30.5-2 30.5-0.3 0-1.1 14.1-1.7 31.2-0.7 17.2-2 48.9-2.8 70.3-0.9 21.4-2.9 95.3-4.5 164-1.6 68.8-3.1 142.9-3.4 164.8l-0.6 39.7h280c0-17.1-0.3-19.1-1.5-19.5-1.2-0.4-1.5-2.6-1.5-11 0-6.3-0.4-10.5-1-10.5-0.6 0-1.2-7.8-1.5-20.5-0.3-12.7-0.9-20.5-1.5-20.5-0.6 0-1.2-7.7-1.5-20-0.3-11-0.8-20-1.2-20-0.5 0-1.5-13.9-2.3-31-0.8-17.1-1.8-31-2.2-31-0.5 0-1-9.2-1.3-20.5-0.3-11.3-0.8-20.5-1.2-20.5-0.5 0-1.5-13.7-2.3-30.5-0.8-16.8-1.8-30.5-2.2-30.5-0.5 0-1-9.2-1.3-20.5-0.3-12.7-0.9-20.5-1.5-20.5-0.6 0-1.2-7.7-1.5-20-0.3-11.8-0.9-20.2-1.5-20.5-0.6-0.3-1-4.8-1-10.5 0-6-0.4-10-1-10-0.6 0-1-3.7-0.9-9.3 0-7.1-0.4-9.5-1.6-10.7-1.2-1.2-1.6-3.6-1.5-11.3 0-8-0.3-9.7-1.5-9.7-1.2 0-1.5-1.8-1.5-10 0-6-0.4-10-1-10-0.6 0-1-4.2-1-10.5 0-6.3-0.4-10.5-1-10.5-0.6 0-1-3.8-1-9.5 0-7.6-0.3-9.6-1.5-10-1.2-0.4-1.5-2.4-1.5-10 0-7.6-0.3-9.6-1.5-10-1.2-0.4-1.5-2.5-1.5-10.5 0-8-0.3-10.1-1.5-10.5-1.2-0.4-1.5-2.5-1.5-10.5 0-8-0.3-10.1-1.5-10.5-1.2-0.4-1.5-2.4-1.5-10 0-7.6-0.3-9.6-1.5-10-1.2-0.4-1.5-2.4-1.5-10 0-7.6-0.3-9.6-1.5-10-1.2-0.4-1.5-2.5-1.5-10.5 0-8-0.3-10.1-1.5-10.5-1.2-0.4-1.5-2.5-1.5-10.5 0-6-0.4-10-1-10-0.6 0-1-3.8-1-9.5 0-8.5-0.2-9.6-2-10.5-1.8-0.9-2-2-2-10.5 0-8.7-0.2-9.5-2-10-1.8-0.5-2-1.3-2-10 0-8.5-0.2-9.6-2-10.5-1.8-0.9-2-2-2-10.5 0-9.2-0.1-9.5-2.5-10.5-2.4-0.9-2.5-1.5-2.7-9.8-0.3-7.9-0.5-8.8-2.5-9.7-2.2-0.9-2.3-1.6-2.3-10.8 0-8.7-0.2-9.8-2-10.7-1.7-0.9-2-2-2-9.3 0-8.1 0-8.2-3-10-3-1.7-3-1.7-3-10.7 0-7.1-0.3-9.1-1.5-9.5-1.2-0.4-1.5-2.5-1.5-10.5 0-9.2-0.2-10-2-10.5-1.8-0.5-2-1.3-2-10 0-7.6-0.3-9.6-1.5-10-1.2-0.4-1.5-2.5-1.5-10.3 0-8.5-0.2-9.9-2-11.5-1.7-1.4-2-2.9-2-10.2 0-7.5-0.2-8.6-2-9.5-1.8-0.9-2-2-2-9.8 0-5.7-0.4-9.1-1.2-10-0.7-0.7-2.1-1.2-3-1.2-1 0-2-0.7-2.3-1.5-0.3-0.8-0.5-5.1-0.5-9.5 0-7.5-0.2-8.1-2.5-9.5-2.3-1.4-2.5-2-2.5-9.3v-7.7l-8-3.5c-0.5-17.8-0.7-18.6-2.7-19.5-2.2-0.9-2.3-1.6-2.3-10.8 0-7.7-0.3-9.8-1.5-10.2-1.2-0.4-1.5-2.5-1.5-10.5 0-6-0.4-10-1-10-0.6 0-1-3.7-1-9.3 0-8-0.2-9.4-2-11-1.7-1.5-2-2.9-2-10.7 0-8-0.2-9.1-2-10-1.8-0.9-2-2-2-9.5v-8.5c-5.4 0-7.2-0.5-7.5-1-0.3-0.5-2.4-1-4.8-1-2.4 0-4.9 0.5-5.7 1.2z"/>
		<path id="Path 1" class="s1" d="m0 1031.5c0 687 0.3 1031.5 1 1031.5 0.6 0 1-3.7 1-9 0-4.9 0.5-9.9 1-11 0.5-1.1 1.1-10.7 1.3-21.3 0.1-14.7 0.5-19.1 1.4-18.9 0.7 0.1 1.5-0.6 1.7-1.6 0.2-0.9 0.7-9.6 1.1-19.2 0.3-9.6 0.8-36.4 1.1-59.5 0.2-26.9 0.7-42.4 1.4-43 0.7-0.6 1.2-15.3 1.5-40.5 0.4-32.8 0.7-39.8 1.9-41 1.2-1.2 1.7-8.9 2.7-40 0.6-21.2 1.2-52.5 1.3-69.6 0.1-26.9 0.3-31.4 1.7-33 1.3-1.6 2-11.3 4.4-60.4 1.5-32.2 2.9-72.9 3.1-90.5 0.2-30.6 0.3-32.1 2.2-33.5 1.8-1.4 2.1-3.2 2.7-21 0.4-12.2 1.1-20 1.9-20.9 0.8-1 1.1-10.1 1.1-30.7 0-27 0.1-29.3 1.7-29.8 1.5-0.5 1.9-2.2 2.3-10.4 0.3-5.3 0.7-14.2 1.1-19.7 0.3-5.5 1-10.5 1.5-11 0.6-0.6 0.8-8.6 0.4-20.8-0.3-12.8-0.2-19.7 0.5-19.7 0.6 0 1-4 1-10 0-6 0.4-10 1-10 0.6 0 1-4.2 1-10.5 0-10 0.1-10.5 2-10 1.5 0.4 2.1-0.1 2.5-1.8 0.3-1.2 0.7-10.5 0.8-20.7 0.2-15.7 0.4-18.5 1.7-18.4 1.2 0.1 1.5-1.6 1.5-10 0-7.5 0.3-10 1.2-9.9 0.7 0.2 1.7-0.3 2.3-1 0.6-0.7 1-9.5 1-21 0-18.2 0.1-19.7 1.7-19.4 1.6 0.4 1.8-0.6 1.5-10-0.2-9.9-0.1-10.3 1.9-10.1 2 0.3 2.1-0.2 2.2-10.2 0.2-9.9 0.3-10.5 2.2-10.3 1.9 0.2 2-0.3 1.7-10.3-0.1-5.7 0.1-10.4 0.5-10.4 0.5 0 1.4 0.5 2.1 1.2 1 1.1 1.5 1 2.2-0.2 0.5-0.8 1-6.1 1-11.8 0-8.4 0.3-10.2 1.5-10.2 0.8 0 1.7 0.5 2 1 0.3 0.5 3.9 1 8 1 4.1 0 7.7-0.5 8-1 0.3-0.5 1-0.8 1.5-0.5 0.6 0.3 0.9 4.8 0.9 10.7-0.2 9.5 0 10.3 1.7 10.3 1.7 0 1.9 0.9 1.9 9.5 0 8.1 0.3 9.6 1.7 10.2 1.6 0.7 1.8 2.7 1.8 20 0 11.3 0.4 19.8 1 20.5 0.6 0.7 1.7 1.1 2.5 0.8 1.3-0.4 1.5 1.1 1.5 9.5 0 6 0.4 10 1 10 0.6 0 1 4.2 1 10.5 0 6.3 0.4 10.5 1 10.5 0.6 0 1 4 1 10 0 6 0.4 10 1 10 0.7 0 0.8 6.8 0.3 19.7-0.4 14.5-0.3 20 0.5 20.5 0.8 0.5 1.2 4.3 1.2 10.5 0 5.4 0.4 10.4 0.8 11.1 0.4 0.8 1.2 1.4 1.7 1.5 0.6 0.1 0.9 6.8 0.6 18.7-0.3 13.1 0 18.7 0.8 19.2 0.7 0.5 1.1 4.4 1.1 10.8 0 5.7 0.4 10.2 1 10.5 0.6 0.3 1 4.6 1 9.7 0 5.1 0.4 9.9 0.8 10.6 0.4 0.8 1.4 1 2.6 0.5 1.7-0.8 1.8-0.2 1.5 10.3-0.3 9.4-0.2 11.1 1.1 11 1.2-0.1 1.5 1.7 1.7 9.9 0.1 5.5 0.6 10.5 1.2 11q1 1 2.6-0.3c1.2-1 1.6-1 2.1 0 0.3 0.7 0.4 5.7 0.2 11-0.2 7.1 0 9.9 0.9 10.3 0.7 0.3 1.5-0.2 1.8-1 0.3-0.8 0.5-6 0.5-11.5 0-9.3 0.1-10 2-10 1.1 0 2.2 0.5 2.5 1 0.3 0.5 1.4 1 2.4 1 1.1 0 2.7-0.7 3.5-1.5 1.2-1.1 1.6-3.6 1.6-10.5 0-5 0.3-9 0.7-9 0.5 0 0.7-4.9 0.5-11-0.1-6.8 0.2-11 0.8-11 0.6 0 1-4 1-10 0-8.4 0.2-9.9 1.5-9.5 0.8 0.3 1.9-0.1 2.4-0.8 0.5-0.6 1.2-5.6 1.5-11 0.3-5.3 0.9-14.1 1.2-19.5 0.3-5.3 1-10.2 1.5-10.7 0.5-0.5 0.9-5 0.9-10 0-6 0.4-9.4 1.2-10.3 1-1 1.3-8.3 1.3-30.7 0-26.6 0.2-29.5 1.7-30.7 1.5-1.2 1.8-5.3 2.7-37.8 0.6-20.1 0.7-42.2 0.3-49.2-0.7-11.8-0.6-12.8 1.3-14.8 1.9-2.1 2-3.1 1.2-31.1-0.5-21.5-0.4-29.1 0.5-29.7 0.8-0.5 0.9-6.1 0.5-21-0.6-15.8-0.4-20.2 0.5-20.2 1 0 1.1-4.2 0.5-19.7-0.4-11.5-0.4-20.2 0.1-20.8 0.5-0.5 1.3-14.3 1.8-30.5 0.5-16.2 0.9-48 0.9-70.5 0-25.7 0.4-41.6 1-42.5 0.6-0.9 1-19.9 1.1-51 0.1-27.2 0.5-50.4 1-51.5 0.4-1.1 0.4-14.9 0.1-30.8-0.5-21.7-0.4-28.9 0.5-29.5 0.9-0.5 1-8.1 0.5-31.5-0.5-21.6-0.4-30.8 0.4-31 0.7-0.1 1.1-15.6 1.4-50.2 0.1-27.5 0.5-50.7 0.8-51.5 0.3-0.8 0.8-13.4 1.2-28 0.4-14.6 1-42.5 1.5-62 0.4-19.5 1.9-80.7 3.4-136 1.9-67.2 2.7-113.9 2.4-140.8-0.1-22.2 0-40.6 0.4-40.8 0.5-0.2 0.8-5.1 0.8-10.9 0-6-0.4-10.7-1-11-0.7-0.3-0.7-10.7-0.3-30.5l0.8-30h-195.5zm992.8-1022.3c0.2 5.1 0 10-0.3 10.8-0.4 1.2-0.8 1.3-1.8 0.2-0.6-0.7-2.2-1.2-3.4-1.2-1.3 0-2.6 0.6-3 1.2-0.3 0.7-0.6 5.5-0.5 10.5 0.1 5.4-0.2 9.5-0.8 9.8-0.5 0.3-1.2 0-1.5-0.5-0.3-0.6-1.1-0.8-1.7-0.5-1 0.4-1.2 3.4-1 11 0.1 5.8-0.1 10.5-0.5 10.5-0.5 0-1.3-0.5-1.9-1.2-1-1-1.3-1-2 0.2-0.4 0.8-0.7 5.9-0.6 11.2 0.1 5.7-0.2 10-0.8 10.3-0.5 0.3-1.2 0-1.5-0.5-0.3-0.6-1.1-0.8-1.7-0.5-1 0.4-1.2 3.4-1 11 0.1 6.5-0.2 10.5-0.8 10.5-0.5 0-1.2-0.5-1.5-1-0.3-0.6-1.1-0.8-1.7-0.5-0.9 0.4-1.3 3.6-1.3 11.3 0 8.9-0.3 10.7-1.5 10.6-1.2-0.1-1.5 1.6-1.5 10 0 9.5-0.1 10.1-2 9.9-1.9-0.2-2 0.4-2 10.5 0 8.9-0.3 10.7-1.5 10.6-1.2-0.1-1.5 1.6-1.5 10 0 9.2-0.2 10.1-1.9 10.1-1.6 0-1.8 1-2 10-0.1 7.4-0.4 9.9-1.3 9.7-0.7-0.1-2 0.4-2.8 1-1.2 1-1.6 3.3-1.5 10.3 0 4.9-0.2 9.2-0.5 9.5-0.3 0.3-0.7 5-0.8 10.5-0.2 8.2-0.5 10-1.7 9.9-1.2-0.1-1.5 1.7-1.5 10.5 0 8.8-0.3 10.6-1.5 10.5-1.3-0.1-1.4 1.6-1.2 10.5l0.4 10.6-4.7-1.4c0 19.6-0.3 21.4-1.5 21.3-1.2-0.1-1.5 1.6-1.5 10 0 7.5-0.3 10-1.2 9.8-0.7-0.1-2 0.4-2.8 1-1.2 1-1.6 3.3-1.5 10 0 4.9-0.3 8.8-0.7 8.8-0.5 0-0.8 4.8-0.8 10.7 0 10.2-0.1 10.8-2 10.6-1.9-0.2-2 0.3-1.7 10.3 0.2 10.1 0.1 10.4-1.9 10.1-2.1-0.2-2.1 0.2-2 10 0 6-0.3 10.5-0.9 10.8-0.5 0.3-1.2 0-1.5-0.5-0.3-0.6-1.1-0.8-1.7-0.5-1 0.4-1.2 3.4-1 11 0.1 6.5-0.2 10.5-0.8 10.5-0.5 0-1.2-0.5-1.5-1-0.3-0.6-1.1-0.8-1.7-0.5-0.9 0.4-1.3 3.6-1.3 11.3 0 9.8-0.2 10.7-1.9 10.7-1.7 0-1.9 0.8-1.7 9.2 0 5.1-0.1 9.7-0.4 10.3q-0.5 1-2 0c-1-0.7-1.7-0.6-2.1 0.2-0.4 0.7-0.7 5.6-0.8 10.8-0.1 7.9-0.4 9.5-1.6 9.2-0.8-0.1-2.1 0.3-2.7 1-0.9 0.9-1.3 7.1-1.5 20.8-0.3 18.8-0.4 19.5-2.3 19.3-1.9-0.2-2 0.4-2 10.5 0 8.9-0.3 10.7-1.5 10.6-1.2-0.1-1.5 1.6-1.5 10 0 9.5-0.1 10.1-2 9.9-1.9-0.2-2 0.4-2 10 0 8.4-0.3 10.2-1.5 10.1-1.2-0.1-1.5 1.7-1.5 10.5 0 9.7-0.2 10.6-1.9 10.6-1.6 0-1.8 1-2 10-0.1 8.2-0.4 10-1.6 9.9-1.3-0.1-1.5 1.6-1.2 10.8 0.2 10.4 0.1 10.8-1.9 10.5-2-0.2-2.1 0.3-2.2 9.8-0.2 9.4-0.3 10-2.2 9.8-1.9-0.2-2 0.4-2 10.5 0 9.6-0.2 10.7-1.7 10.4-1.6-0.2-1.8 0.9-1.8 10.3 0 10.4 0 10.5-2.2 10-2.3-0.4-2.3-0.3-2.3 9.8 0 9.3-0.2 10.2-1.9 10.2-1.6 0-1.8 1-2 10.5-0.1 9.9-0.2 10.5-2.1 10.3-1.9-0.2-2 0.3-1.7 10.5l0.4 10.7-4.7-1.4c0.5 19.6 0.3 21-1.2 21.6-1.5 0.7-1.8 2.2-1.8 10.3 0 8.9-0.1 9.5-2 9.2-1.1-0.2-2.3 0.3-2.7 1-0.4 0.7-0.8 5.3-0.8 10.3 0 4.9-0.2 9.2-0.5 9.5-0.3 0.3-0.7 5-0.8 10.5-0.2 8.3-0.5 10-1.7 9.7-0.8-0.1-2.1 0.3-2.7 1-0.9 0.9-1.3 6.7-1.3 21 0 19.5 0 19.8-2.1 19.5-2-0.2-2.1 0.3-2.2 9.8-0.2 8.2-0.5 10-1.7 9.9-1.2-0.1-1.5 1.7-1.5 10.5 0 9.5-0.2 10.6-1.7 10.3-1.6-0.2-1.8 0.9-1.8 10.3 0 10.4 0 10.5-2.2 10-2.3-0.4-2.3-0.3-2 10 0.2 9.2 0 10.6-1.5 11.2-1.5 0.7-1.8 2.2-1.8 10.3 0 8.9-0.1 9.5-2 9.2-1.1-0.2-2.3 0.3-2.7 1-0.4 0.7-0.8 5.2-0.8 10 0 4.9-0.3 8.8-0.7 8.8-0.5 0-0.8 4.8-0.8 10.7 0 9-0.3 10.8-1.5 10.7-1.3-0.1-1.4 1.6-1.2 10.5 0.4 9.9 0.3 10.6-1.5 10-1.7-0.5-1.8 0.1-1.5 9.8 0.2 9 0 10.4-1.5 11-1.5 0.7-1.8 2.2-1.8 10.3 0 7.1-0.3 9.4-1.2 9.2-0.7-0.1-2 0.4-2.8 1-1.2 1-1.6 3.4-1.6 10.3 0 6.6-0.3 9.4-1.4 10.5-1.2 1.2-1.5 5.5-1.7 20.5-0.3 16.2-0.5 19-1.8 18.9-1.2-0.1-1.5 1.7-1.5 10.5 0 9.5-0.2 10.6-1.7 10.3-1-0.1-2 0.6-2.3 1.5-0.3 1-0.6 10.5-0.5 21 0 18.8-0.1 19.3-2 18.8q-2-0.5-2.6 1.2c-0.3 1-0.5 10.5-0.5 21 0.1 12.3-0.3 19.3-0.9 19.3-0.6 0-1 4-1 10 0 6-0.4 10-1 10-0.6 0-1 4-1 10 0 8.4-0.2 9.9-1.5 9.5-0.8-0.3-1.9 0.1-2.4 0.7-0.5 0.7-1.2 5.6-1.5 10.8-0.3 5.2-1 14.2-1.6 20-0.6 5.8-1.5 15.2-2 21-0.6 5.8-1.3 14.5-1.6 19.5-0.2 4.9-0.9 9.9-1.5 11-0.5 1.1-1.1 10.5-1.2 21-0.2 16.3-0.4 19-1.7 18.7-0.8-0.2-1.8 0.3-2.2 1-0.4 0.7-0.8 5.5-0.8 10.5 0 6-0.4 9.6-1.2 10-0.8 0.6-0.9 6-0.5 20.5 0.5 13 0.4 19.8-0.3 19.8-0.6 0-1 4-1 10 0 9-0.2 10.1-2 11-1.8 0.9-2 2-2 10.5 0 6.1-0.4 9.8-1.2 10.2-0.8 0.6-0.9 6-0.5 20 0.7 19.1 0.7 19.3-1.5 20.5-2.1 1.3-2.1 1.5-1.5 20.5 0.7 19.1 0.7 19.3-1.5 20.5-2.1 1.3-2.1 1.5-1.5 20.5l0.7 19.3c-4.5 2.3-4.5 2.5-3.8 16.9 0.4 8 0.4 21.5 0 29.9-0.5 11.6-1 15.1-1.9 14.7-0.8-0.3-1.6 0.5-1.9 1.7-0.4 1.3-0.3 10.4 0.1 20.3 0.8 17.1 0.7 18.1-1.1 19.1-1.7 1.1-2 3.5-3.3 30.5-0.7 16.2-1 30.5-0.6 31.9 0.4 1.4 0.3 10.9-0.1 21.3-0.7 13.8-1.2 18.7-2.1 18.7-1 0-1.3 2.6-1.3 9.7 0 6.6-0.4 10.2-1.2 11.1-1 1-1.3 8.4-1.3 31 0 23.2-0.3 29.6-1.2 29.4-0.7-0.1-1.5 0.8-1.7 2-0.3 1.3-4.6 87.3-9.6 191.3-5 103.9-9.1 195-9 202.2 0 7.9-0.4 13.5-1 13.8-0.6 0.3-1 8.1-1 20.2 0 11.4-0.4 20.2-0.9 20.8-0.6 0.6-1.5 18.4-2.1 41-0.6 22-1.4 40.4-1.7 41-0.3 0.6-0.7 18.6-0.9 40-0.3 32.5-0.6 39.2-1.8 40.5-1.2 1.2-1.7 8.8-2.7 40-0.6 21.2-1.2 52.5-1.3 69.6-0.1 28.1-0.3 31.4-1.8 33-1.5 1.6-1.8 4.1-1.8 17.4 0 8.5-0.7 29.2-1.6 46-1.1 21-1.4 38.1-1 54.7 0.4 15.8 0.3 24.5-0.4 24.8-0.6 0.3-1 8.3-1 21v20.5h910.5c-0.4-68.6-0.7-116.2-0.9-150-0.3-44.5-1-74.5-2.7-108.5-1.2-25.8-2.6-47.2-2.9-47.5-0.4-0.3-1.3-14.3-2.1-31.3-0.8-16.9-1.7-30.7-2.1-30.7-0.5 0-1-9-1.3-20-0.3-12.3-0.9-20-1.5-20-0.6 0-1-4.2-1-10.5 0-6-0.4-10.7-1-11-0.6-0.3-1.3-9-1.7-20.5-0.5-11-1.1-20-1.5-20-0.5 0-0.8-4.5-0.8-10 0-6-0.4-10-1-10-0.6 0-1-4-1-10 0-6-0.4-10-1-10-0.6 0-1-4.2-1-10.5 0-8.4-0.3-10.6-1.5-11-1.2-0.4-1.5-2.4-1.5-10 0-5.7-0.4-9.5-1-9.5-0.6 0-1-4.2-1-10.5 0-9.7-0.2-10.5-2-11-1.8-0.5-2-1.3-2-10 0-7.6-0.3-9.6-1.5-10-1.2-0.4-1.5-2.5-1.5-10.5 0-9.2-0.2-10-2-10.5-1.8-0.5-2-1.3-2-10 0-7.6-0.3-9.6-1.5-10-1.2-0.4-1.5-2.4-1.5-10 0-7.6-0.3-9.6-1.5-10-1.2-0.4-1.5-2.5-1.5-10.5 0-6-0.4-10-1-10-0.6 0-1-4-1-10 0-6-0.4-10-1-10-0.6 0-1-4.2-1-10.5 0-8.4-0.3-10.6-1.5-11-1.2-0.4-1.5-2.4-1.5-10 0-5.7-0.4-9.5-1-9.5-0.6 0-1-4.2-1-10.5 0-6.3-0.4-10.5-1-10.5-0.6 0-1-4-1-10 0-6-0.4-10-1-10-0.6 0-1-4-1-10 0-6-0.4-10-1-10-0.6 0-1-4.2-1-10.5 0-6.3-0.4-10.5-1-10.5-0.6 0-1-4-1-10 0-6-0.4-10-1-10-0.6 0-1-4.2-1-10.5 0-6.3-0.4-10.5-1-10.5-0.6 0-1.2-7.8-1.5-20.5-0.3-12.7-0.9-20.5-1.5-20.5-0.6 0-1.2-7.7-1.5-20-0.3-12.3-0.9-20-1.5-20-0.6 0-1.2-7.8-1.5-20.5-0.3-12.7-0.9-20.5-1.5-20.5-0.6 0-1.2-7.8-1.5-20.5-0.3-11.3-0.8-20.5-1.2-20.5-0.5 0-1.2-9.1-1.7-20.2-0.4-11.2-1.1-20.5-1.5-20.8-0.4-0.3-2.6-41.5-4.9-91.5-2.3-50.1-4.9-109.9-5.7-133-0.8-23.1-2.4-64.5-3.5-92-1.1-27.5-2.7-68.5-3.5-91-0.8-22.6-2.2-59.9-3-83-0.9-23.1-2.4-65-3.5-93-1.1-28.1-4.8-110.4-8.2-183-3.4-72.6-6.5-132.2-6.8-132.5-0.3-0.3-3.7-64.6-7.5-143-3.8-78.4-7.2-142.7-7.6-143-0.4-0.3-1.1-9.6-1.5-20.8-0.5-11.1-1.2-20.2-1.6-20.2-0.5 0-1.1-9-1.5-20-0.6-14.5-1.1-20.1-2-20.5-0.9-0.4-1.3-3.4-1.3-10.5 0-6-0.4-10-1-10-0.6 0-1-4-1-10 0-8-0.3-10.1-1.5-10.5-1.2-0.4-1.5-2.5-1.5-10.5 0-5.7-0.4-10.2-1-10.5-0.6-0.3-1.2-8.5-1.5-20-0.3-10.7-0.8-19.5-1.2-19.5-0.5 0-1.4-12.7-2.1-28.2-0.6-15.6-1.7-49.9-2.3-76.3-0.7-28.4-1-85.3-0.7-139.5 0.4-74.6 0.9-100 2.7-137.5 1.3-25.3 2.7-46.8 3.2-47.8 0.5-0.9 0.9-6 0.9-11.2v-9.5h-440.5zm1796 0.5c0.2 7.1-0.1 10.1-1.1 11.2-1.1 1.2-2.3 21.6-5.6 90.5-2.4 49-4 91.1-3.6 93.5 0.4 2.5 0.1 17.3-0.7 32.8-1 21.8-1.6 28.2-2.5 27.8-0.8-0.3-1.5 0.4-1.7 1.7-0.3 1.2-1 13.3-1.6 26.7-0.5 13.5-0.7 30.6-0.4 38 0.6 12.7 0.5 13.6-1.3 15-1.9 1.4-2.1 3.7-3.3 29-0.7 15.2-1.4 42.2-1.6 60-0.2 32.1-0.3 32.6-2.4 34-2.1 1.5-2.1 2-1.8 21 0.2 15.2 0 19.5-0.9 19.3-0.7-0.1-1.6 0.8-1.9 2-0.4 1.2-0.3 10.3 0.1 20.2l0.7 18-4.7 3.4c0 45.8-0.3 59.1-0.7 59.1-0.5 0-0.9 4.4-1 9.8-0.2 5.9-0.7 9.6-1.3 9.4-0.5-0.2-1.4 0.3-1.8 1-0.4 0.7-0.5 10.2-0.2 21.1 0.3 12.9 0.2 19.7-0.5 19.7-0.6 0-1.1 4.3-1.2 10.3-0.2 7.6-0.6 10.2-1.5 10-0.7-0.1-1.6 0.8-1.9 2-0.3 1.2-0.4 10.2-0.2 20 0.2 11.4-0.1 17.7-0.7 17.6-0.5 0-1.4 0.6-1.8 1.3-0.4 0.7-0.5 10.2-0.2 21.1 0.3 12.9 0.2 19.7-0.5 19.7-0.6 0-1 4.2-1 10.5 0 6.4-0.4 10.5-1 10.5-0.6 0-1 4-1 10 0 6-0.4 10-1 10-0.6 0-1 4.2-1 10.5 0 6.4-0.4 10.5-1 10.5-0.6 0-1 4-1 10 0 9-0.2 10-1.7 9.7-1.6-0.3-1.8 0.7-1.8 9.8 0 9-0.2 10-1.7 9.8-1.2-0.2-2 0.6-2.3 2-0.3 1.2-0.7 10.6-0.8 20.7-0.1 10.2-0.5 18.3-0.8 18-0.3-0.2-1.4 0.2-2.3 1-1.4 1.3-1.7 3.3-1.7 10.5 0 6.6-0.3 9.5-1.4 10.5-1.2 1.2-1.5 5.5-1.7 21-0.2 15-0.6 19.5-1.5 19.3-0.7-0.1-1.7 0.3-2.3 1-0.6 0.7-1 9.4-1 20.5v19.2c-3.8-1-4.7-0.6-5.3 0.7-0.4 1-0.8 10.5-0.7 21.1 0 12.2-0.4 19.2-1 19.2-0.6 0-1 4.2-1 10.5 0 9.5-0.2 10.5-1.7 10.2-1.6-0.3-1.8 0.7-1.8 9.8 0 7.5-0.3 10-1.2 9.8-0.7-0.1-1.7 0.3-2.3 1-0.6 0.7-1 9.4-1 21 0 12.5-0.4 19.7-1 19.7-0.6 0-1 4-1 10 0 9-0.2 10-1.7 9.7-1.6-0.3-1.8 0.7-1.8 10.3 0 8.8-0.2 10.5-1.5 10.3-0.8-0.2-1.8 0.2-2.2 1-0.4 0.7-0.8 5.3-0.8 10.2 0 5-0.4 9.5-1 10-0.6 0.7-1 8.7-1 20.8 0 12.5-0.4 19.7-1 19.7-0.6 0-1 4.2-1 10.5 0 6.4-0.4 10.5-1 10.5-0.6 0-1 4-1 10 0 6-0.4 10-1 10-0.6 0-1 4-1 10 0 6-0.4 10-1 10-0.6 0-1.1 4.3-1.2 10.3-0.2 6-0.7 10.3-1.3 10.3-0.5 0-1.6 0.3-2.2 0.7-0.9 0.5-1.3 3.6-1.3 10 0 5.1-0.4 9.7-0.9 10.2-0.5 0.6-1.3 5.5-1.6 11-0.4 5.5-0.6 19.2-0.6 30.3 0.1 12.9-0.3 20.2-0.9 20.2-0.6 0-1 4-1 10 0 6-0.4 10-1 10-0.6 0-1 4-1 10 0 6-0.4 10-1 10-0.6 0-1.1 4.3-1.2 10.3-0.2 6.3-0.7 10.1-1.3 9.9-0.5-0.2-1.3 0.3-1.7 1-0.4 0.7-0.8 5.5-0.8 10.6 0 5.9-0.4 9.5-1.2 10-0.8 0.5-0.9 6-0.5 20.5 0.5 12.9 0.4 19.7-0.3 19.7-0.6 0-1 3.9-1 9.5 0 8.5-0.2 9.7-2 10.5-1.8 0.9-2 2-2 11 0 5.7-0.4 10.3-1 10.5-0.6 0.3-1 4.7-1 10 0 5.4-0.4 9.8-1 10-0.6 0.3-1 4.9-1 10.5 0 6.5-0.4 10.3-1.2 10.8-0.8 0.5-0.9 5.9-0.5 20 0.7 18.6 0.6 19.3-1.3 20.2-1.9 1-2 1.8-1.5 20.5 0.3 12.7 0.2 19.5-0.5 19.5-0.6 0-1.1 4.3-1.2 10.3-0.2 7.6-0.6 10.2-1.5 10-0.7-0.1-1.6 0.8-1.9 2-0.3 1.2-0.4 10.6-0.2 20.7 0.2 14.4 0 18.5-0.9 18.3-0.7-0.1-1.6 0.8-1.9 2-0.3 1.2-0.4 10.6-0.2 20.7 0.2 14.4 0 18.5-0.9 18.3-0.7-0.1-1.6 1-2 2.5-0.3 1.5-0.3 8.4 0 15.2 0.4 6.9 0.4 19.6-0.1 28.3-0.5 12-1 15.7-1.9 15.3-0.7-0.3-1.6 0.4-2 1.7-0.3 1.2-0.7 15.2-0.7 30.9-0.1 27.9-0.2 28.8-2.1 29.3-1.9 0.5-2 1-1.2 20 0.6 18.1 0.6 19.6-1 20.4-1.6 0.8-1.9 4.2-3.2 29.8-0.7 15.9-1 30.4-0.6 32.3 0.4 2 0.1 16.5-0.6 32.3-1.1 21.6-1.7 28.8-2.6 28.8-1-0.1-1.4 4.9-1.8 19.9-0.3 11.9-0.9 20.3-1.5 20.5-0.6 0.4-1 8.1-1 20.3 0 10.9-0.4 20.2-0.8 20.7-0.5 0.6-1.5 14.1-2.2 30-0.7 16-1 30.4-0.6 32 0.4 1.7 0.4 11.2-0.1 21.3-0.7 17-0.9 18.2-2.8 18.7-1.9 0.5-2 1-1.3 14.8 0.6 10.2 0 30-1.9 70.2-1.8 39.2-3 56.5-3.8 57.5-0.9 1.1-1.6 11.1-2.4 32.5-0.6 17.1-1.6 43.2-2.2 58-0.6 14.9-0.8 29.5-0.4 32.5 0.4 3.1 0.2 17.7-0.5 32.5-0.9 18.2-1.7 27.5-2.5 28.5-0.8 1.1-1.6 10.6-2.3 30-0.7 15.7-1.1 42.8-0.9 60.3 0.2 30.7 0.1 31.7-1.8 33.1-1.9 1.5-2 2.6-2 51 0 27.2-0.3 49.9-0.8 50.3-0.4 0.5-0.7 14.5-0.7 31.1v30.2h298v-2880h-51c0 19.2-0.3 21-1.5 21-0.8 0-1.8-0.5-2.1-1.2-0.5-1-0.9-0.9-1.5 0.2-0.5 0.9-0.9 5.9-0.9 11.3 0 8-0.3 9.7-1.5 9.7-1.3 0-1.4-2.7-1-20.5l0.5-20.5h-32.5z"/>
		<path id="Path 2" class="s2" d="m985.8 9.5c0.2 8.3 0.4 9.5 2 9.5 0.9 0 2.3 0.5 2.9 1.2 1 1.1 1.4 1 1.8-0.2 0.3-0.8 0.4-5.5 0.3-10.5l-0.3-9-7-0.6zm1801.4 1c-0.1 6.7 0.2 10.4 0.8 10.1 0.6-0.3 1.1-4.8 1.2-10 0-5.3-0.4-9.7-0.9-10-0.7-0.4-1.1 3.1-1.1 9.9zm33.9-5.2c0 2.9-0.4 12.1-0.8 20.5-0.7 14.2-0.6 15.3 1 15.3 1.5 0 1.8-1.2 1.8-9.8 0-5.4 0.4-10.4 0.8-11.2 0.7-1.2 1.1-1.2 1.5-0.3 0.4 0.7 1.3 1.3 2.1 1.3 1.3 0 1.5-1.9 1.5-10.5v-10.5h-8zm-1840 16.9c-0.9 0.8-1.3 3.6-1.2 8.8 0.1 4.6 0.7 8 1.5 8.7 0.7 0.7 1.6 1 2 0.5 0.5-0.4 0.8-4.6 0.9-9.4 0-4.8-0.4-8.9-0.9-9.2-0.6-0.3-1.6 0-2.3 0.6zm-4.5 20.1c-0.3 0.8-0.4 5.1-0.2 9.7 0.2 5.6 0.7 8.4 1.5 8.7 0.9 0.2 1.2-2.2 1.2-9.7 0-6.2-0.3-10-1-10-0.5 0-1.2 0.6-1.5 1.3zm-782.1 8.7c0 5.2 0.2 7.3 0.4 4.5 0.2-2.7 0.2-7 0-9.5-0.2-2.5-0.4-0.2-0.4 5zm776.6 11.2c-0.9 0.8-1.3 3.7-1.2 9.3 0.1 5 0.6 8.5 1.5 9.2 0.7 0.7 1.6 1 2 0.5 0.5-0.4 0.8-4.8 0.9-9.9 0-5.1-0.4-9.4-0.9-9.7-0.6-0.3-1.6 0-2.3 0.6zm-776.5 20.5c-0.4 0.3-0.7 4.6-0.6 9.5 0.1 4.8 0.6 9 1.1 9.3 0.7 0.3 1-3.2 1-9.5 0-5.5-0.1-10-0.3-10-0.2 0-0.7 0.3-1.2 0.7zm771.5 0.5c-1 0.9-1.3 3.3-1.2 8.8 0.1 4.5 0.7 8 1.5 8.8 0.7 0.7 1.6 1.2 2 1.2 0.4 0 0.7-4.5 0.7-10 0-5.5-0.3-10-0.8-10-0.4 0-1.4 0.5-2.2 1.2zm-4.4 19.5c-0.5 0.3-0.8 5.1-0.7 10.5 0.1 7.3 0.5 9.7 1.4 9.5 0.9-0.3 1.3-3.3 1.5-9.8 0.2-5.2-0.1-9.7-0.5-10.2-0.5-0.4-1.2-0.4-1.7 0zm-3 21c-0.5 0.3-0.8 4.8-0.7 10 0.1 6.9 0.5 9.2 1.4 9 0.9-0.3 1.3-3.2 1.5-9.3 0.2-4.9-0.1-9.2-0.5-9.7-0.5-0.4-1.2-0.4-1.7 0zm-4 20c-0.5 0.3-0.8 5.1-0.7 10.5 0.1 7.3 0.5 9.7 1.4 9.5 0.9-0.3 1.3-3.3 1.5-9.8 0.2-5.2-0.1-9.7-0.5-10.2-0.5-0.4-1.2-0.4-1.7 0zm-3 21c-0.5 0.3-0.8 4.8-0.7 10 0.1 6.9 0.5 9.2 1.4 9 0.9-0.3 1.3-3.2 1.5-9.3 0.2-4.9-0.1-9.2-0.5-9.7-0.5-0.4-1.2-0.4-1.7 0zm-3.7 19.7c-1 1-1.2 3.6-0.8 10 0.2 4.8 0.9 8.6 1.4 8.6 0.6 0 1.1-4.1 1.2-10 0.1-5.5 0-10-0.1-10-0.2 0-0.9 0.6-1.7 1.4zm1828.6 39.6c-0.4 11.3-1.1 21-1.5 21.5-0.5 0.6-0.8 5.2-0.7 10.4 0.1 5.2 0.7 9.6 1.2 9.8 0.7 0.2 1.6-10.8 2.5-29.7 1.2-22.9 1.3-30.2 0.4-31.2-0.9-1-1.4 3.4-1.9 19.2zm-1835.9 1.7c-0.5 0.3-0.8 4.8-0.7 10 0.1 6.9 0.5 9.2 1.4 9 0.9-0.3 1.3-3.2 1.5-9.3 0.2-4.9-0.1-9.2-0.5-9.7-0.5-0.4-1.2-0.4-1.7 0zm-3.1 20c-0.4 0.3-0.7 5.1-0.6 10.5 0.1 7.9-0.1 9.9-1.4 10.3-1.1 0.4-1.5 2.4-1.5 10 0 7.8 0.3 9.5 1.5 9.5 1.3 0 1.5-1.8 1.5-10 0-8 0.3-10.1 1.5-10.5 1.2-0.4 1.6-2.5 1.6-9.9 0.1-5.4-0.3-9.7-0.8-10-0.6-0.3-1.4-0.3-1.8 0.1zm-6.9 41c-0.5 0.3-0.8 5.1-0.7 10.5 0.1 7.3 0.5 9.7 1.4 9.5 0.9-0.3 1.3-3.3 1.5-9.8 0.2-5.2-0.1-9.7-0.5-10.2-0.5-0.4-1.2-0.4-1.7 0zm-2.8 21.5c-0.5 0.8-0.7 5.1-0.5 9.6 0.1 4.6 0.7 8.2 1.2 8.2 0.6 0 1.2-3.7 1.3-8.7 0.2-4.9-0.1-9.2-0.5-9.7-0.4-0.5-1.1-0.3-1.5 0.6zm1842.3 28.7c0 6.4 0.3 9.9 0.9 9.6 0.6-0.3 1.1-4.5 1.1-9.4 0.1-5-0.3-9.3-0.8-9.6-0.7-0.4-1.1 3-1.2 9.4zm-1849.5 10.8c-0.5 0.3-0.8 5.1-0.7 10.5 0.1 7.3 0.5 9.7 1.4 9.5 0.9-0.3 1.3-3.3 1.5-9.8 0.2-5.2-0.1-9.7-0.5-10.2-0.5-0.4-1.2-0.4-1.7 0zm-4.1 21c-0.4 0.3-0.7 4.8-0.6 10 0.1 7.5 0.4 9.3 1.6 9.3 1.3 0 1.5-1.8 1.5-10 0-5.5-0.3-10-0.8-10-0.4 0-1.2 0.3-1.7 0.7zm-4.5 20.5c-0.9 0.8-1.3 3.7-1.2 9.3 0.1 5 0.6 8.5 1.5 9.2 0.7 0.7 1.6 1 2 0.5 0.5-0.4 0.8-4.8 0.9-9.9 0-5.1-0.4-9.4-0.9-9.7-0.6-0.3-1.6 0-2.3 0.6zm-5 21c-1 0.9-1.3 3.3-1.2 8.8 0.1 4.5 0.7 8 1.5 8.8 0.7 0.7 1.6 1.2 2 1.2 0.4 0 0.7-4.5 0.7-10 0-5.5-0.3-10-0.8-10-0.4 0-1.4 0.5-2.2 1.2zm-4.4 19.5c-0.5 0.3-0.8 5.1-0.7 10.5 0.1 7.3 0.5 9.7 1.4 9.5 0.9-0.3 1.3-3.3 1.5-9.8 0.2-5.2-0.1-9.7-0.5-10.2-0.5-0.4-1.2-0.4-1.7 0zm1861.4 4.3c0 3-0.3 12.5-0.6 21-0.6 11.9-0.5 15.3 0.5 14.8 0.8-0.6 1.3-6.7 1.7-20 0.4-13.3 0.2-19.6-0.5-20.3-0.8-0.7-1.1 0.6-1.1 4.5zm-1865.2 17.2c-0.5 0.8-0.7 5.1-0.5 9.6 0.1 4.6 0.7 8.2 1.2 8.2 0.6 0 1.2-3.7 1.3-8.7 0.2-4.9-0.1-9.2-0.5-9.7-0.4-0.5-1.1-0.3-1.5 0.6zm-5 20c-0.5 0.8-0.7 5.1-0.5 9.6 0.1 4.6 0.7 8.2 1.2 8.2 0.6 0 1.2-3.7 1.3-8.7 0.2-4.9-0.1-9.2-0.5-9.7-0.4-0.5-1.1-0.3-1.5 0.6zm-708.3 19.5c-0.4 0.3-0.7 4.8-0.6 10 0.1 5.1 0.6 9.5 1.1 9.8 0.7 0.3 1-3.3 1-10 0-5.8-0.1-10.5-0.3-10.5-0.2 0-0.7 0.3-1.2 0.7zm2574.3 0.5c-0.4 0.8-0.7 5.4-0.5 10.1 0.1 5 0.7 8.7 1.2 8.7 0.6 0 1.2-3.9 1.3-9.2 0.2-5.1-0.1-9.7-0.5-10.2-0.4-0.5-1.1-0.3-1.5 0.6zm-1872.2 20.5c-0.5 0.3-0.8 4.8-0.7 10 0.1 6.9 0.5 9.2 1.4 9 0.9-0.3 1.3-3.2 1.5-9.3 0.2-4.9-0.1-9.2-0.5-9.7-0.5-0.4-1.2-0.4-1.7 0zm-4 20c-0.5 0.3-0.8 5.1-0.7 10.5 0.1 7.3 0.5 9.7 1.4 9.5 0.9-0.3 1.3-3.3 1.5-9.8 0.2-5.2-0.1-9.7-0.5-10.2-0.5-0.4-1.2-0.4-1.7 0zm1873.5 9.7c0 6.8 0.3 10.4 0.9 10.1 0.6-0.3 1.1-4.7 1.1-9.9 0.1-5.4-0.3-9.7-0.8-10.1-0.7-0.4-1.1 3.2-1.2 9.9zm-1876.5 11.3c-0.5 0.3-0.8 4.8-0.7 10 0.1 6.9 0.5 9.2 1.4 9 0.9-0.3 1.3-3.2 1.5-9.3 0.2-4.9-0.1-9.2-0.5-9.7-0.5-0.4-1.2-0.4-1.7 0zm-4 20c-0.5 0.3-0.8 4.8-0.7 10 0.1 6.9 0.5 9.2 1.4 9 0.9-0.3 1.3-3.2 1.5-9.3 0.2-4.9-0.1-9.2-0.5-9.7-0.5-0.4-1.2-0.4-1.7 0zm-693.6 29.8c0 6.3 0.4 10.5 1 10.5 0.7 0 1-4.2 1-10.5 0-6.3-0.3-10.5-1-10.5-0.6 0-1 4.2-1 10.5zm690.6-9.8c-0.5 0.3-0.8 5.1-0.7 10.5 0.1 7.3 0.5 9.7 1.4 9.5 0.9-0.3 1.3-3.3 1.5-9.8 0.2-5.2-0.1-9.7-0.5-10.2-0.5-0.4-1.2-0.4-1.7 0zm1878.9 0c-0.4 0.3-0.7 4.9-0.6 10.2 0.1 5.5-0.3 10-0.8 10.6-0.6 0.6-1 4.7-0.8 9.8 0.1 4.8 0.7 8.8 1.2 9 0.7 0.1 1.1-3.7 1.3-9.5 0.1-5.7 0.7-9.8 1.2-9.8 0.7 0 1-4.2 1-10.5 0-5.8-0.3-10.5-0.8-10.5-0.4 0-1.2 0.3-1.7 0.7zm-1883 21c-0.4 0.3-0.7 4.8-0.6 10 0.1 7.5-0.1 9.4-1.4 9.8-1.2 0.4-1.5 2.5-1.5 10.5 0 8.2 0.3 10 1.5 10 1.3 0 1.5-1.8 1.5-10.5 0-8.4 0.3-10.6 1.5-11 1.2-0.4 1.6-2.4 1.6-9.4 0.1-5-0.3-9.2-0.8-9.5-0.6-0.3-1.4-0.3-1.8 0.1zm-687 41c-0.4 0.3-0.7 4.6-0.6 9.5 0.1 4.8 0.6 9 1.1 9.3 0.7 0.3 1-3.2 1-9.5 0-5.5-0.1-10-0.3-10-0.2 0-0.7 0.3-1.2 0.7zm680.1 0c-0.5 0.3-0.8 4.8-0.7 10 0.1 6.9 0.5 9.2 1.4 9 0.9-0.3 1.3-3.2 1.5-9.3 0.2-4.9-0.1-9.2-0.5-9.7-0.5-0.4-1.2-0.4-1.7 0zm1884.9 0c-0.4 0.3-0.7 4.7-0.6 9.7 0.1 5.2-0.3 9.5-0.8 10.1-0.6 0.6-1 4.9-0.8 10.3 0.1 5.1 0.7 9.3 1.2 9.5 0.7 0.1 1.1-3.8 1.3-10 0.1-6 0.7-10.3 1.2-10.3 0.6 0 1-4 1-10 0-5.5-0.3-10-0.8-10-0.4 0-1.2 0.3-1.7 0.7zm-1888.9 20c-0.5 0.3-0.8 5.1-0.7 10.5 0.1 7.3 0.5 9.7 1.4 9.5 0.9-0.3 1.3-3.3 1.5-9.8 0.2-5.2-0.1-9.7-0.5-10.2-0.5-0.4-1.2-0.4-1.7 0zm-4.1 21c-0.4 0.3-0.7 4.8-0.6 10 0.1 7.5 0.4 9.3 1.6 9.3 1.3 0 1.5-1.8 1.5-10 0-5.5-0.3-10-0.8-10-0.4 0-1.2 0.3-1.7 0.7zm-673 20c-0.4 0.3-0.7 4.6-0.6 9.5 0.1 4.8 0.6 9 1.1 9.3 0.7 0.3 1-3.2 1-9.5 0-5.5-0.1-10-0.3-10-0.2 0-0.7 0.3-1.2 0.7zm669.1 0c-0.5 0.3-0.8 4.8-0.7 10 0.1 6.9 0.5 9.2 1.4 9 0.9-0.3 1.3-3.2 1.5-9.3 0.2-4.9-0.1-9.2-0.5-9.7-0.5-0.4-1.2-0.4-1.7 0zm1892.2 0.5c-0.5 0.8-0.7 5.1-0.5 9.6 0.1 4.6 0.7 8.2 1.2 8.2 0.6 0 1.2-3.7 1.3-8.7 0.2-4.9-0.1-9.2-0.5-9.7-0.4-0.5-1.1-0.3-1.5 0.6zm-1896.2 19.5c-0.5 0.3-0.8 5.1-0.7 10.5 0.1 7.3 0.5 9.7 1.4 9.5 0.9-0.3 1.3-3.3 1.5-9.8 0.2-5.2-0.1-9.7-0.5-10.2-0.5-0.4-1.2-0.4-1.7 0zm-4.1 21c-0.4 0.3-0.7 4.8-0.6 10 0.1 7.5 0.4 9.3 1.6 9.3 1.3 0 1.5-1.8 1.5-10 0-5.5-0.3-10-0.8-10-0.4 0-1.2 0.3-1.7 0.7zm1897 0c-0.4 0.3-0.7 4.8-0.6 10 0.1 5.4-0.3 9.5-0.9 9.8-0.5 0.3-1 4.8-1 10.5 0 5.7-0.4 10.2-1 10.5-0.5 0.3-1 4.7-1 10 0 5.3-0.4 9.7-1 10-0.5 0.3-1 4.8-1 10.5 0 5.7-0.4 10.2-1 10.5-0.5 0.3-1 4.7-1 10 0 7.8 0.3 9.5 1.5 9.5 1.3 0 1.5-1.8 1.5-10 0-6 0.4-10 1-10 0.7 0 1-4.2 1-10.5 0-6.3 0.4-10.5 1-10.5 0.6 0 1-4 1-10 0-6 0.4-10 1-10 0.7 0 1-4.2 1-10.5 0-6.3 0.4-10.5 1-10.5 0.6 0 1-4 1-10 0-5.5-0.3-10-0.8-10-0.4 0-1.2 0.3-1.7 0.7zm-1900.9 20c-0.5 0.3-0.8 5.1-0.7 10.5 0.1 7.3 0.5 9.7 1.4 9.5 0.9-0.3 1.3-3.3 1.5-9.8 0.2-5.2-0.1-9.7-0.5-10.2-0.5-0.4-1.2-0.4-1.7 0zm-2.8 21.5c-0.5 0.8-0.7 5.1-0.5 9.6 0.1 4.6 0.7 8.2 1.2 8.2 0.6 0 1.2-3.7 1.3-8.7 0.2-4.9-0.1-9.2-0.5-9.7-0.4-0.5-1.1-0.3-1.5 0.6zm-656.3 19.5c-0.4 0.3-0.7 4.8-0.6 10 0.1 5.1 0.6 9.5 1.1 9.8 0.7 0.3 1-3.3 1-10 0-5.8-0.1-10.5-0.3-10.5-0.2 0-0.7 0.3-1.2 0.7zm649.3 21.5c-0.5 0.8-0.7 5.1-0.5 9.6 0.1 4.6 0.7 8.2 1.2 8.2 0.6 0 1.2-3.7 1.3-8.7 0.2-4.9-0.1-9.2-0.5-9.7-0.4-0.5-1.1-0.3-1.5 0.6zm1900 20c-0.5 0.8-0.7 5.1-0.5 9.6 0.1 4.6 0.7 8.2 1.2 8.2 0.6 0 1.2-3.7 1.3-8.7 0.2-4.9-0.1-9.2-0.5-9.7-0.4-0.5-1.1-0.3-1.5 0.6zm-1906.3 19.5c-0.4 0.3-0.7 5.1-0.6 10.5 0.1 8 0.4 9.8 1.6 9.8 1.3 0 1.5-1.8 1.5-10.5 0-5.8-0.3-10.5-0.8-10.5-0.4 0-1.2 0.3-1.7 0.7zm-3.9 21c-0.5 0.3-0.8 4.8-0.7 10 0.1 6.9 0.5 9.2 1.4 9 0.9-0.3 1.3-3.2 1.5-9.3 0.2-4.9-0.1-9.2-0.5-9.7-0.5-0.4-1.2-0.4-1.7 0zm1905.2 0.5c-0.5 0.8-0.7 5.1-0.5 9.6 0.1 4.6 0.7 8.2 1.2 8.2 0.6 0 1.2-3.7 1.3-8.7 0.2-4.9-0.1-9.2-0.5-9.7-0.4-0.5-1.1-0.3-1.5 0.6zm-1908.2 19.5c-0.5 0.3-0.8 5.1-0.7 10.5 0.1 7.3 0.5 9.7 1.4 9.5 0.9-0.3 1.3-3.3 1.5-9.8 0.2-5.2-0.1-9.7-0.5-10.2-0.5-0.4-1.2-0.4-1.7 0zm-4.1 21c-0.4 0.3-0.7 4.8-0.6 10 0.1 7.5 0.4 9.3 1.6 9.3 1.3 0 1.5-1.8 1.5-10 0-5.5-0.3-10-0.8-10-0.4 0-1.2 0.3-1.7 0.7zm-635 20c-0.4 0.3-0.7 4.8-0.6 10 0.1 5.1 0.6 9.5 1.1 9.8 0.7 0.3 1-3.3 1-10 0-5.8-0.1-10.5-0.3-10.5-0.2 0-0.7 0.3-1.2 0.7zm631.1 0c-0.5 0.3-0.8 5.1-0.7 10.5 0.1 7.3 0.5 9.7 1.4 9.5 0.9-0.3 1.3-3.3 1.5-9.8 0.2-5.2-0.1-9.7-0.5-10.2-0.5-0.4-1.2-0.4-1.7 0zm1908.2 0.5c-0.4 0.8-0.7 5.4-0.5 10.1 0.1 5 0.7 8.7 1.2 8.7 0.6 0 1.2-3.9 1.3-9.2 0.2-5.1-0.1-9.7-0.5-10.2-0.4-0.5-1.1-0.3-1.5 0.6zm-1911 21c-0.5 0.8-0.7 5.1-0.5 9.6 0.1 4.6 0.7 8.2 1.2 8.2 0.6 0 1.2-3.7 1.3-8.7 0.2-4.9-0.1-9.2-0.5-9.7-0.4-0.5-1.1-0.3-1.5 0.6zm-629.8 28.8c0 6 0.4 10 1 10 0.6 0 1-4 1-10 0-6-0.4-10-1-10-0.6 0-1 4-1 10zm2535.5-8.7c-0.3 0.8-0.4 5.1-0.2 9.7 0.2 5.6 0.7 8.4 1.5 8.7 0.9 0.2 1.2-2.2 1.2-9.7 0-6.2-0.3-10-1-10-0.5 0-1.2 0.6-1.5 1.3zm-1913 19.4c-0.4 0.3-0.7 5.1-0.6 10.5 0.1 7.9-0.1 9.9-1.4 10.3-1.1 0.4-1.5 2.4-1.5 10 0 7.8 0.3 9.5 1.5 9.5 1.3 0 1.5-1.8 1.5-10 0-8 0.3-10.1 1.5-10.5 1.2-0.4 1.6-2.5 1.6-9.9 0.1-5.4-0.3-9.7-0.8-10-0.6-0.3-1.4-0.3-1.8 0.1zm-623 21c-0.4 0.3-0.7 4.6-0.6 9.5 0.1 4.8 0.6 9 1.1 9.3 0.7 0.3 1-3.2 1-9.5 0-5.5-0.1-10-0.3-10-0.2 0-0.7 0.3-1.2 0.7zm2530 0c-0.4 0.3-0.7 4.8-0.6 10 0.1 5.4-0.3 9.5-0.9 9.8-0.5 0.3-1 4.8-1 10.5 0 8.2 0.3 10 1.5 10 1.3 0 1.5-1.8 1.5-10.5 0-6.3 0.4-10.5 1-10.5 0.6 0 1.1-3.9 1.1-9.4 0.1-5.4-0.3-9.7-0.8-10-0.6-0.3-1.4-0.3-1.8 0.1zm-2628.6 30.3c-0.2 6.1-0.1 11 0.1 11 0.3 0 1.4-0.6 2.5-1.4 1.4-1 4.5-1.5 9.3-1.6 4 0 7.5 0.5 7.7 1 0.3 0.6 1 0.8 1.5 0.5 0.6-0.3 1-4.7 1-10 0-5.2-0.4-9.7-0.9-10-0.5-0.3-1.1-0.1-1.5 0.5-0.3 0.5-3.9 1-8.1 1-4.1 0-7.7-0.4-8-1-0.2-0.5-1.1-1-1.9-1-1.1 0-1.5 2.2-1.7 11zm715.7-10.3c-0.5 0.3-0.8 5.1-0.7 10.5 0.1 7.3 0.5 9.7 1.4 9.5 0.9-0.3 1.3-3.3 1.5-9.8 0.2-5.2-0.1-9.7-0.5-10.2-0.5-0.4-1.2-0.4-1.7 0zm-721.6 30.3c0 5.5 0.4 10 0.8 10 0.4 0 1.5-0.6 2.5-1.3 1.3-0.9 1.7-2.8 1.7-8.7 0-5.9-0.4-7.8-1.7-8.7-1-0.7-2.1-1.2-2.5-1.3-0.4 0-0.8 4.5-0.8 10zm29.4-0.6c0.1 5.6 0.6 9.6 1.1 9.6 0.6 0 1-3.7 1-9.2 0-6-0.3-9.3-1.1-9.6-0.9-0.3-1.1 2.2-1 9.2zm689.4-8.2c-0.5 0.8-0.7 5.1-0.5 9.6 0.1 4.6 0.7 8.2 1.2 8.2 0.6 0 1.2-3.7 1.3-8.7 0.2-4.9-0.1-9.2-0.5-9.7-0.4-0.5-1.1-0.3-1.5 0.6zm1911 0c-0.5 0.8-0.7 5.1-0.5 9.6 0.1 4.6 0.7 8.2 1.2 8.2 0.6 0 1.2-3.7 1.3-8.7 0.2-4.9-0.1-9.2-0.5-9.7-0.4-0.5-1.1-0.3-1.5 0.6zm-2633.3 20.1c-0.3 0.8-0.4 5.3-0.2 10 0.1 4.8 0.7 8.8 1.2 9 0.7 0.1 1.2-3.9 1.3-10 0.2-6.7-0.1-10.3-0.8-10.3-0.5 0-1.2 0.6-1.5 1.3zm35.9 8.9c0.1 6.3 0.5 10.2 1.1 10.1 0.6-0.2 1-4.4 1-10q0-9.6-1.1-10.1c-0.9-0.3-1.1 2.4-1 10zm70.1-9.5c-0.4 0.3-0.7 4.8-0.6 10 0.1 5.1 0.6 9.5 1.1 9.8 0.7 0.3 1-3.3 1-10 0-5.8-0.1-10.5-0.3-10.5-0.2 0-0.7 0.3-1.2 0.7zm-110.5 30.3c0 8.2-0.2 10-1.5 10-1.2 0-1.5 1.8-1.5 10 0 7.5 0.4 9.9 1.3 9.7 0.9-0.3 1.3-3.3 1.5-9.8 0.3-7 0.7-9.6 1.8-10.1 1.1-0.6 1.4-3 1.4-10.3 0-7.8-0.2-9.5-1.5-9.5-1.2 0-1.5 1.8-1.5 10zm2632.5-9.3c-0.4 0.3-0.7 4.8-0.6 10 0.1 5.4-0.3 9.5-0.9 9.8-0.5 0.3-1 4.7-1 10 0 7.8 0.3 9.5 1.5 9.5 1.3 0 1.5-1.8 1.5-10 0-6 0.4-10 1-10 0.6 0 1.1-3.9 1.1-9.4 0.1-5.4-0.3-9.7-0.8-10-0.6-0.3-1.4-0.3-1.8 0.1zm-2587 20c-0.4 0.3-0.7 4.6-0.6 9.5 0.1 4.8 0.6 9 1.1 9.3 0.6 0.3 1 4.8 1 10.5 0 5.7 0.5 10.2 1 10.5 0.6 0.3 1 4.6 1 9.8 0 5 0.5 9.7 1 10.2 0.5 0.6 1.1 5.4 1.3 10.8 0.1 5.6 0.7 9.7 1.2 9.7 0.6 0 1.2-4.2 1.3-10 0.2-6.2-0.1-10-0.8-10-0.6 0-1-4-1-10 0-6-0.4-10-1-10-0.6 0-1-4.2-1-10.5 0-6.3-0.3-10.5-1-10.5-0.6 0-1-4-1-10 0-5.5-0.3-10-0.8-10-0.4 0-1.2 0.3-1.7 0.7zm672.1 0c-0.5 0.3-0.8 4.8-0.7 10 0.1 6.9 0.5 9.2 1.4 9 0.9-0.3 1.3-3.2 1.5-9.3 0.2-4.9-0.1-9.2-0.5-9.7-0.5-0.4-1.2-0.4-1.7 0zm-2.8 20.5c-0.4 0.8-0.7 5.4-0.5 10.1 0.1 5 0.7 8.7 1.2 8.7 0.6 0 1.2-3.9 1.3-9.2 0.2-5.1-0.1-9.7-0.5-10.2-0.4-0.5-1.1-0.3-1.5 0.6zm1913 0c-0.4 0.8-0.7 5.4-0.5 10.1 0.1 5 0.7 8.7 1.2 8.7 0.6 0 1.2-3.9 1.3-9.2 0.2-5.1-0.1-9.7-0.5-10.2-0.4-0.5-1.1-0.3-1.5 0.6zm-2635 21c-0.5 0.8-0.7 5.1-0.5 9.6 0.1 4.6 0.7 8.2 1.2 8.2 0.6 0 1.2-3.7 1.3-8.7 0.2-4.9-0.1-9.2-0.5-9.7-0.4-0.5-1.1-0.3-1.5 0.6zm-3.3 20.1c-0.3 0.8-0.4 5.3-0.2 10 0.1 4.8 0.7 8.8 1.2 9 0.7 0.1 1.2-3.9 1.3-10 0.2-6.7-0.1-10.3-0.8-10.3-0.5 0-1.2 0.6-1.5 1.3zm116-0.6c-0.4 0.3-0.7 4.8-0.6 10 0.1 5.1 0.6 9.5 1.1 9.8 0.7 0.3 1-3.3 1-10 0-5.8-0.1-10.5-0.3-10.5-0.2 0-0.7 0.3-1.2 0.7zm604 0.6c-0.3 0.8-0.4 5.3-0.2 10.2 0.2 6 0.6 8.9 1.5 9.2 0.9 0.2 1.2-2.3 1.2-10.2 0-6.5-0.3-10.5-1-10.5-0.5 0-1.2 0.6-1.5 1.3zm1911 20.4c-0.4 0.3-0.7 4.8-0.6 10 0.1 5.4-0.3 9.5-0.9 9.8-0.5 0.3-1 4.8-1 10.5 0 5.7-0.4 10.2-1 10.5-0.5 0.3-1 4.7-1 10 0 5.3-0.4 9.7-1 10-0.5 0.3-0.9 4.6-0.9 9.8 0 5-0.5 9.7-1 10.2-0.6 0.6-1 5-0.8 10.5 0.1 5.5 0.7 9.5 1.2 9.5 0.6 0 1.2-4.2 1.3-10.2 0.1-6 0.7-10.3 1.2-10.3 0.6 0 1-4 1-10 0-6 0.4-10 1-10 0.6 0 1-4 1-10 0-6 0.4-10 1-10 0.7 0 1-4.2 1-10.5 0-6.3 0.4-10.5 1-10.5 0.6 0 1.1-3.9 1.1-9.4 0.1-5.4-0.3-9.7-0.8-10-0.6-0.3-1.4-0.3-1.8 0.1zm-2636.3 29.7c-0.1 6.3-0.6 10.6-1.2 10.6-0.6 0-1 4-1 10 0 6-0.4 10-1 10-0.6 0-1 4-1 10 0 7.5 0.4 9.9 1.3 9.7 0.9-0.3 1.3-3.3 1.5-9.8 0.2-5.2 0.8-9.8 1.3-10.4 0.5-0.5 1-5 0.9-10 0-4.9 0.5-9.4 1-10 0.6-0.6 1-4.9 0.8-10.4-0.2-5.9-0.7-9.6-1.4-9.9-0.8-0.2-1.2 2.8-1.2 10.2zm720.3-9.7c-0.4 0.3-0.7 5.1-0.6 10.5 0.1 5.7-0.3 10-0.9 10.3-0.5 0.3-0.9 4.6-0.9 9.8 0 5-0.5 9.7-1 10.2-0.6 0.6-1 4.8-0.8 9.9 0.2 6.1 0.6 9 1.5 9.3 0.9 0.2 1.2-2.2 1.2-9.7 0-6 0.4-10 1-10 0.6 0 1-4 1-10 0-6 0.4-10 1-10 0.6 0 1.1-4 1.1-9.9 0.1-5.7-0.3-10.2-0.8-10.5-0.6-0.3-1.4-0.3-1.8 0.1zm-647.7 21.5c-0.5 0.8-0.7 5.1-0.5 9.6 0.1 4.6 0.7 8.2 1.2 8.2 0.6 0 1.2-3.7 1.3-8.7 0.2-4.9-0.1-9.2-0.5-9.7-0.4-0.5-1.1-0.3-1.5 0.6zm37.4 69.7c-0.1 6-0.6 10.1-1.2 10.1-0.6 0-0.9 3.9-0.7 10.3 0.1 6.2 0.6 10.1 1.2 10 0.6-0.2 1.2-4.4 1.3-9.5 0.1-5.1 0.7-10.2 1.3-11.3 0.6-1.1 0.9-5.8 0.7-10.4-0.1-5.1-0.7-8.6-1.4-8.9-0.8-0.2-1.2 2.7-1.2 9.7zm-29.7 10.8c-0.4 0.3-0.7 4.8-0.6 10 0.1 7.3 0.5 9.4 1.6 9.8 1.2 0.4 1.5 2.4 1.5 9.8 0 6.3 0.4 9.6 1.3 10.4 1 0.9 1.3-0.7 1.5-8.8 0.2-8.1 0-10-1.3-10.4-1.2-0.4-1.5-2.6-1.5-11 0-5.8-0.3-10.5-0.8-10.5-0.4 0-1.2 0.3-1.7 0.7zm-91.5 30.3c0 6 0.4 10 1 10 0.6 0 1-4 1-10 0-6-0.4-10-1-10-0.6 0-1 4-1 10zm99.5 11.5c-1.6 1-1.9 2.4-1.7 9.1 0.2 6.7 0.6 8.1 2.2 9.2 1.1 0.6 2.3 0.9 2.6 0.5 0.3-0.5 0.5-4.9 0.6-10 0-5-0.4-9.4-0.9-9.6-0.5-0.3-1.8 0.1-2.8 0.8zm6.4 9.3l-0.4 10.8c3.7-0.8 5-1.4 5.2-1.8 0.2-0.5 1.2-0.8 2.3-0.8 1.9 0 2-0.7 2-8.5 0-8-0.1-8.5-2.1-8.5-1.2 0-2.3-0.4-2.5-1-0.2-0.5-1.2-1-2.3-1-1.8 0-2 0.9-2.2 10.8zm2525.6-10.1c-0.4 0.3-0.7 5.1-0.6 10.5 0.1 5.7-0.3 10-0.9 10.3-0.5 0.3-1 4.7-1 10 0 5.3-0.4 9.7-1 10-0.5 0.3-0.9 4.6-0.9 9.8 0 5-0.5 9.7-1 10.2-0.6 0.6-1 4.9-0.8 10.3 0.1 5.1 0.7 9.3 1.2 9.5 0.7 0.1 1.1-3.8 1.3-10 0.1-6 0.7-10.3 1.2-10.3 0.6 0 1-4 1-10 0-6 0.4-10 1-10 0.6 0 1-4 1-10 0-6 0.4-10 1-10 0.7 0 1-4.2 1-10.5 0-5.8-0.3-10.5-0.8-10.5-0.4 0-1.2 0.3-1.7 0.7zm-1916.7 21.5c-0.5 0.8-0.7 5.1-0.5 9.6 0.1 4.6 0.7 8.2 1.2 8.2 0.6 0 1.2-3.7 1.3-8.7 0.2-4.9-0.1-9.2-0.5-9.7-0.4-0.5-1.1-0.3-1.5 0.6zm-721 60.5c-0.3 0.4-0.9 9.4-1.3 19.8-0.5 11.2-0.4 19.3 0.1 19.7 0.6 0.3 1.3-7.8 1.7-19.5 0.5-11.1 0.7-20.3 0.5-20.5-0.2-0.2-0.7 0-1 0.5zm714.9 0c-0.2 0.5-0.8 9.8-1.2 20.8-0.6 15.3-0.5 19.8 0.4 19.3 0.7-0.5 1.1-4.2 1.1-10.8 0-6 0.4-10 1-10 0.6 0 1.1-3.9 1.1-9.4 0.1-5.5-0.3-9.7-0.9-10.1-0.5-0.3-1.2-0.2-1.5 0.2zm1912 41c-0.2 0.5-0.8 9.6-1.2 20.3-0.6 14.8-0.5 19.3 0.4 18.8 0.7-0.5 1.1-4.1 1.1-10.3 0-5.7 0.5-9.5 1-9.5 0.6 0 1.1-3.9 1.1-9.4 0.1-5.5-0.3-9.7-0.9-10.1-0.5-0.3-1.2-0.2-1.5 0.2zm-1918.6 49.7c0 6.8 0.3 10.4 0.9 10.1 0.6-0.3 1.1-4.7 1.1-9.9 0.1-5.4-0.3-9.7-0.8-10.1-0.7-0.4-1.1 3.2-1.2 9.9zm-3 41c0 6.8 0.3 10.4 0.9 10.1 0.6-0.3 1.1-4.7 1.1-9.9 0.1-5.4-0.3-9.7-0.8-10.1-0.7-0.4-1.1 3.2-1.2 9.9zm-3 41c0 6.8 0.3 10.4 0.9 10.1 0.6-0.3 1.1-4.7 1.1-9.9 0.1-5.4-0.3-9.7-0.8-10.1-0.7-0.4-1.1 3.2-1.2 9.9zm1914 0c0 6.8 0.3 10.4 0.9 10.1 0.6-0.3 1.1-4.7 1.1-9.9 0.1-5.4-0.3-9.7-0.8-10.1-0.7-0.4-1.1 3.2-1.2 9.9zm-2625.3 11.3c-0.3 0.4-0.9 9.5-1.4 20.1-0.7 15.2-0.6 19.2 0.4 19.2 0.9 0 1.4-4.9 1.8-19.7 0.3-10.9 0.4-19.9 0.2-20.1-0.2-0.2-0.7 0-1 0.5zm708.2 28.8c0.1 5.6-0.4 10.4-0.9 11-0.6 0.6-1 4.9-0.8 10.4 0.1 5.2 0.7 9.6 1.2 9.8 0.7 0.2 1.3-7.1 1.9-19.4 0.5-13.8 0.4-20.1-0.3-20.8-0.8-0.7-1.1 1.9-1.1 9zm1913.5-8.8c-0.4 0.3-0.7 4.7-0.6 9.7 0.1 5.2-0.3 9.5-0.8 10.1-0.6 0.6-1 4.9-0.8 10.3 0.1 5.1 0.7 9.3 1.2 9.5 0.7 0.1 1.1-3.8 1.3-10 0.1-6 0.7-10.3 1.2-10.3 0.6 0 1-4 1-10 0-5.5-0.3-10-0.8-10-0.4 0-1.2 0.3-1.7 0.7zm-1917.4 70.7c0 6.8 0.3 10.4 0.9 10.1 0.6-0.3 1.1-4.7 1.1-9.9 0.1-5.4-0.3-9.7-0.8-10.1-0.7-0.4-1.1 3.2-1.2 9.9zm1912.7-9.2c-0.4 0.8-0.7 5.4-0.5 10.1 0.1 5 0.7 8.7 1.2 8.7 0.6 0 1.2-3.9 1.3-9.2 0.2-5.1-0.1-9.7-0.5-10.2-0.4-0.5-1.1-0.3-1.5 0.6zm-3 41c-0.4 0.8-0.7 5.4-0.5 10.1 0.1 5 0.7 8.7 1.2 8.7 0.6 0 1.2-3.9 1.3-9.2 0.2-5.1-0.1-9.7-0.5-10.2-0.4-0.5-1.1-0.3-1.5 0.6zm-2620 20.5c-0.3 0.4-0.9 9.5-1.4 20.1-0.7 15.2-0.6 19.2 0.4 19.2 0.9 0 1.4-4.9 1.8-19.7 0.3-10.9 0.4-19.9 0.2-20.1-0.2-0.2-0.7 0-1 0.5zm705 34.6c-0.4 8.4-0.8 17.6-0.8 20.5 0 2.8 0.4 5.2 0.8 5.2 0.4 0 1.1-8.9 1.6-19.7 0.4-10.9 0.4-20.1 0-20.5-0.5-0.4-1.2 6.1-1.6 14.5zm1912.2-5.8c0.1 5.6-0.4 10.4-0.9 11-0.6 0.6-1 4.9-0.8 10.4 0.1 5.2 0.7 9.6 1.2 9.8 0.7 0.2 1.3-7.1 1.9-19.4 0.5-13.8 0.4-20.1-0.3-20.8-0.8-0.7-1.1 1.9-1.1 9zm-2618.6 41c0 5.5 0.2 7.5 0.4 4.5 0.2-3 0.2-7.5 0-10-0.2-2.5-0.4 0-0.4 5.5zm704 1c0 5.5 0.2 7.5 0.4 4.5 0.2-3 0.2-7.5 0-10-0.2-2.5-0.4 0-0.4 5.5zm-705.6 10.2c-0.3 0.4-0.8 9.7-1.1 20.6-0.4 12.9-0.3 19.7 0.3 19.7 0.7 0 1.3-7.8 1.6-20.2 0.3-11.2 0.4-20.4 0.2-20.6-0.2-0.2-0.7 0-1 0.5zm2615.2 30.3c0 6 0.4 10 1 10 0.6 0 1-4 1-10 0-6-0.4-10-1-10-0.6 0-1 4-1 10zm-1913.2 11.2c-0.4 0.8-0.7 5.4-0.5 10.1 0.1 5 0.7 8.7 1.2 8.7 0.6 0 1.2-3.9 1.3-9.2 0.2-5.1-0.1-9.7-0.5-10.2-0.4-0.5-1.1-0.3-1.5 0.6zm1910.3 29.7c0 6.4 0.3 9.9 0.9 9.6 0.6-0.3 1.1-4.5 1.1-9.4 0.1-5-0.3-9.3-0.8-9.6-0.7-0.4-1.1 3-1.2 9.4zm-2618.3 52.3c-0.5 0.8-0.7 5.1-0.5 9.6 0.1 4.6 0.7 8.2 1.2 8.2 0.6 0 1.2-3.7 1.3-8.7 0.2-4.9-0.1-9.2-0.5-9.7-0.4-0.5-1.1-0.3-1.5 0.6zm2612.5 45.6c-0.7 14.7-1.3 28.6-1.3 31 0 2.3 0.4 4.2 0.8 4.2 0.4 0 1.4-13.5 2.2-30q1.5-29.9 0.5-30.9-1-1-2.2 25.7zm-10.5 193.5c-0.4 8.4-0.8 17.3-0.8 20 0 2.6 0.4 4.7 0.8 4.7 0.4 0 1.1-8.7 1.6-19.2 0.4-10.6 0.4-19.6 0-20-0.5-0.4-1.2 6.1-1.6 14.5zm-6 103.5c-1.6 31.7-2.8 59.3-2.8 61.2 0 2.1 0.4 3.1 0.9 2.5 0.5-0.5 2.2-27.6 3.8-60.2q2.8-59.2 1.8-60.2-1-1-3.7 56.7zm-1916.7 171.5c0 2.8-0.3 12.2-0.7 20.7-0.4 10.7-0.3 15.2 0.4 14.5 0.6-0.6 1.4-9.3 1.8-20.7 0.4-14.1 0.3-19.8-0.5-19.8-0.6 0-1.1 2.1-1 5.3zm1907.1 42c-0.6 14.4-1.2 28.2-1.2 30.7 0 2.7 0.4 4.1 0.9 3.5 0.5-0.5 1.4-12.2 2-26 0.6-13.7 1.2-27.1 1.2-29.7 0-2.7-0.4-4.8-0.9-4.8-0.4 0-1.3 11.8-2 26.3zm-1913.2 100.7c0 3-0.3 12.5-0.6 21-0.6 11.9-0.5 15.3 0.5 14.8 0.8-0.6 1.3-6.7 1.7-20 0.4-13.3 0.2-19.6-0.5-20.3-0.8-0.7-1.1 0.6-1.1 4.5zm1907.6 36.3c-0.4 11.1-0.4 20.4-0.1 20.7 0.3 0.3 0.7 0.3 0.9 0 0.3-0.3 0.7-9.6 1.1-20.7 0.4-12.9 0.3-20.3-0.3-20.3-0.5 0-1.2 8.4-1.6 20.3zm-3.5 112.1c0 6.8 0.3 10.4 0.9 10.1 0.6-0.3 1.1-4.7 1.1-9.9 0.1-5.4-0.3-9.7-0.8-10.1-0.7-0.4-1.1 3.2-1.2 9.9zm-1910 20.5c0 6.4 0.3 9.9 0.9 9.6 0.6-0.3 1.1-4.5 1.1-9.4 0.1-5-0.3-9.3-0.8-9.6-0.7-0.4-1.1 3-1.2 9.4zm747.3-2471.4c0 6.1 0.2 8.3 0.4 5 0.2-3.3 0.2-8.2 0-11-0.2-2.7-0.4 0-0.4 6zm-0.4 41c0 6.3 0.4 10.5 1 10.5 0.7 0 1-4.2 1-10.5 0-6.3-0.3-10.5-1-10.5-0.6 0-1 4.2-1 10.5zm-456.5 235.2c-0.4 0.3-0.7 9.3-0.6 20 0.1 11.7 0.5 19.5 1.1 19.8 0.6 0.3 1.2 0.2 1.4-0.2 0.3-0.5 0.8-9.7 1.1-20.5 0.6-16.7 0.5-19.8-0.7-19.8-0.8 0-1.8 0.3-2.3 0.7zm-815.1 234.3c0 5.8 0.2 8 0.4 5 0.2-3 0.2-7.7 0-10.5-0.2-2.7-0.4-0.3-0.4 5.5zm-9 20.5c0 6.1 0.2 8.3 0.4 5 0.2-3.3 0.2-8.2 0-11-0.2-2.7-0.4 0-0.4 6zm3.6 0c0 8.7 0.3 10.5 1.5 10.5 1.3 0 1.5-1.8 1.5-10.5 0-8.7-0.2-10.5-1.5-10.5-1.2 0-1.5 1.8-1.5 10.5zm2629.4 82c0 5.5 0.2 7.5 0.4 4.5 0.2-3 0.2-7.5 0-10-0.2-2.5-0.4 0-0.4 5.5zm-2.5 30.9c-1 1-1.2 3.7-0.8 10.2 0.4 7.5 0.7 8.9 2.2 9.1 1.6 0.3 1.8-0.8 1.8-9.6 0.1-5.8-0.3-10.2-0.9-10.5-0.5-0.3-1.6 0-2.3 0.8zm-1936.9 357.1c0 6.3-0.3 10.5-1 10.5-0.6 0-1 4-1 10 0 9.3-0.1 10-2 10-1.8 0-1.9 0.6-1.8 9.3 0.1 5 0.4 14.4 0.8 20.7l0.7 11.5c0.3-18.6 0.6-20.5 1.8-20.5 1.3 0 1.5-1.8 1.5-10.5 0-6.3 0.4-10.5 1-10.5 0.6 0 1-4 1-10 0-6 0.4-10 1-10 0.7 0 1-4.2 1-10.5 0-8.7-0.2-10.5-1.5-10.5-1.2 0-1.5 1.8-1.5 10.5zm631.4 102c0 6.1 0.2 8.3 0.4 5 0.2-3.3 0.2-8.2 0-11-0.2-2.7-0.4 0-0.4 6zm1251.5 61.9c-0.3 7.9-0.1 10.3 0.9 10 0.9-0.3 1.2-3.3 1.2-10.4 0-5.5-0.4-10-0.9-10-0.5 0-1.1 4.7-1.2 10.4zm-4.1 30.3c-0.3 0.4-0.8 8.7-1.1 18.3-0.3 9.6-0.2 23.4 0.2 30.5l0.7 13c1.3-31.8 2.1-41.4 2.5-42 0.5-0.5 0.8-5.2 0.7-10.4-0.2-5.9-0.7-9.6-1.4-9.8-0.6-0.2-1.3 0-1.6 0.4zm-1950.8 336.8c0 6.3-0.3 10.5-1 10.5-0.6 0-1 4-1 10 0 6-0.4 10-1 10-0.6 0-1 4.2-1 10.5 0 6.3-0.3 10.5-1 10.5-0.6 0-1 4.2-1 10.5 0 8 0.3 10.4 1.3 10 0.9-0.4 1.5-6.1 2-21 0.5-12.5 1.1-20.5 1.7-20.5 0.6 0 1-4 1-10 0-6 0.4-10 1-10 0.7 0 1-4.2 1-10.5 0-6.3-0.3-10.5-1-10.5-0.6 0-1 4.2-1 10.5zm-8.5 92.2c-0.4 0.3-0.7 5.1-0.6 10.5 0.1 6-0.2 9.8-0.9 9.8-0.6 0-1.1 7.8-1.5 20.5-0.2 11.3-0.8 20.5-1.2 20.5-0.4 0-1.4 13.6-2.1 30.2-0.8 16.7-1.8 30.5-2.2 30.8-0.4 0.3-0.9 9.5-1.2 20.5-0.2 11-0.3 15.4-0.1 9.8 0.2-6 0.8-10.3 1.3-10.3 0.7 0 1.2-7.7 1.5-20 0.4-12.3 0.9-20 1.5-20 0.7 0 1-4.2 1-10.5 0-6.3 0.4-10.5 1-10.5 0.7 0 1.2-7.8 1.5-20.5 0.4-12.7 0.9-20.5 1.5-20.5 0.6 0 1-4 1-10 0-6 0.4-10 1-10 0.7 0 1-4.2 1-10.5 0-5.8-0.3-10.5-0.8-10.5-0.4 0-1.2 0.3-1.7 0.7zm763.5 336.8c0 6.3 0.4 10.5 1 10.5 0.7 0 1-4.2 1-10.5 0-6.3-0.3-10.5-1-10.5-0.6 0-1 4.2-1 10.5zm-655.3 479.5c-0.5 11.3-1.2 20.7-1.7 21-0.4 0.3-0.9 9.4-1.1 20.2-0.2 12.7 0 19.8 0.6 19.8 0.7 0 1.5-9.3 2.3-23.7 0.7-13.1 1.1-31.4 1-40.8l-0.3-17z"/>
	</g>
</svg>