<svg version="1.2" xmlns="http://www.w3.org/2000/svg" viewBox="0 0 512 512" width="16" height="16">
	<title>favorite</title>
	<style>
		.s0 { fill: white; } 
	</style>
	<path id="Path 0" class="s0" d="m143.5 23.6c-1.7 0.2-7.1 0.9-12 1.5-5 0.6-12.6 1.9-17 3-4.4 1.1-11.6 3.3-16 4.8-4.4 1.6-11.4 4.5-15.5 6.6-4.1 2.1-11.1 6.1-15.5 9-4.4 2.9-11.6 8.4-15.9 12.1-4.4 3.8-11.1 10.5-14.9 14.9-3.8 4.4-8.8 10.9-11.2 14.5-2.4 3.6-6.4 10.3-8.9 15-2.5 4.7-6.3 13.9-8.5 20.5-2.2 6.6-4.9 17.4-6.1 24-1.3 7.6-2 16.6-2 24.5 0 7.9 0.8 16.9 2 24.5 1.1 6.6 3.1 16.1 4.4 21 1.3 4.9 4.1 13.5 6.1 19 2.1 5.5 5.7 14.3 8.2 19.5 2.4 5.2 6.7 13.6 9.5 18.5 2.8 4.9 8.3 13.7 12.1 19.5 3.9 5.8 10.9 15.7 15.8 22 4.8 6.3 15.2 18.7 23.1 27.5 8 8.8 21.2 22.5 29.4 30.4 8.2 7.9 20.7 19.4 27.9 25.6 7.2 6.1 17.7 15 23.5 19.7 5.8 4.7 18.8 14.7 29 22.2 10.2 7.6 29 20.8 41.7 29.4l23.3 15.7c36-24.3 54.8-37.5 65-45.1 10.2-7.5 23.2-17.5 29-22.2 5.8-4.7 16.4-13.6 23.5-19.7 7.1-6.2 19.7-17.7 27.9-25.6 8.2-7.9 21.4-21.6 29.4-30.4 7.9-8.8 18.3-21.2 23.1-27.5 4.9-6.3 11.9-16.2 15.8-22 3.8-5.8 9.8-15.4 13.1-21.5 3.4-6.1 8.2-15.5 10.6-21 2.4-5.5 6-14.5 7.9-20 1.9-5.5 4.4-14.1 5.5-19 1.2-4.9 2.8-13.6 3.7-19.2 0.8-5.7 1.5-15.7 1.5-22.3 0-7.6-0.8-16.3-2-23.7-1.2-6.5-3.9-17.2-6.1-23.8-2.2-6.6-6-15.8-8.5-20.5-2.5-4.7-6.5-11.4-8.9-15-2.4-3.6-7.4-10.1-11.2-14.5-3.8-4.4-10.5-11.1-14.9-14.9-4.3-3.7-11.5-9.2-15.9-12.1-4.4-2.9-11.4-6.9-15.5-9-4.1-2.1-11.1-5-15.5-6.6-4.4-1.5-11.6-3.7-16-4.8-4.4-1-11.8-2.4-16.5-3-4.7-0.5-10.8-1.3-13.5-1.6-2.8-0.3-11.1 0.2-18.5 1-7.4 0.9-18 2.7-23.5 4.1-5.5 1.4-13.4 3.9-17.5 5.6-4.1 1.6-10.9 4.8-15 7-4.1 2.3-10.6 6.2-14.5 8.8-3.9 2.6-10.4 7.8-14.5 11.4-4.1 3.6-7.7 6.6-8 6.6-0.3 0-3.9-3-8-6.6-4.1-3.6-10.7-8.8-14.5-11.4-3.8-2.6-10.4-6.5-14.5-8.8-4.1-2.2-10.9-5.4-15-7-4.1-1.7-12-4.2-17.5-5.6-5.5-1.4-15.8-3.2-23-4-7.2-0.9-13.9-1.5-15-1.4-1.1 0-3.3 0.3-5 0.4z"/>
</svg>