<svg version="1.2" xmlns="http://www.w3.org/2000/svg" viewBox="0 0 512 512" width="512" height="512">
	<title>animal-shelter(1)</title>
	<style>
		.s0 { fill: white; } 
	</style>
	<path id="Path 0" class="s0" d="m243.9 30.3c-1.5 1.2-3.2 3.2-3.8 4.4-0.8 1.6-1.1 20.1-1.1 63.5 0 52.5 0.2 62.2 1.6 67.3 0.8 3.3 3 8.7 4.7 11.9 1.8 3.3 5.8 8.8 8.9 12.3 3.2 3.4 5.8 6.6 5.7 7.1 0 0.4-3.9 4.1-8.6 8.2-4.7 4.1-18.3 17.2-30.2 29-11.9 11.8-26.9 27.6-33.2 35-6.4 7.4-15.2 18.2-19.6 24-4.4 5.8-11 15-14.6 20.5-3.5 5.5-8.8 14.2-11.6 19.3-2.8 5-7.1 13.8-9.5 19.5-2.4 5.6-5.3 13.5-6.5 17.5-1.1 3.9-2.6 7.2-3.1 7.2-0.6 0-0.8-1.8-0.5-4.2 0.3-2.4 1.2-11.5 2-20.3 0.9-8.8 2.5-22.3 3.6-30 1.1-7.7 3.3-21.4 5-30.5 1.6-9.1 5-24.8 7.5-35 2.6-10.2 6.8-25 9.4-33 2.7-8 6.3-17.7 8-21.5 1.7-3.8 3.4-9.2 3.7-12 0.3-2.7 0-6.9-0.6-9.2-0.7-2.6-2.8-6.2-5.4-9-2.3-2.5-6.5-5.7-9.2-6.9-3.4-1.6-6.8-2.4-10.8-2.4-3.1 0-7.4 0.7-9.5 1.6-2 0.8-5.2 2.9-7 4.7-1.9 1.8-4.9 6.2-6.8 10-1.9 3.7-6.3 15.4-9.9 26-3.5 10.5-8.9 28.6-12 40.2-3 11.6-7.3 29.1-9.4 39-2.2 9.9-5.1 25.4-6.5 34.5-1.4 9.1-3.3 24.4-4.2 34-0.9 9.6-1.7 26.7-1.8 38-0.1 17 0.2 21.7 1.7 27.5 1.1 3.9 3.8 11.1 6.2 16 2.4 4.9 6.8 11.9 9.7 15.5 3 3.6 8.1 8.6 11.3 11.1 3.3 2.5 7.6 5.5 9.5 6.6 1.9 1.2 5.9 3.1 8.7 4.2 2.9 1.2 8.7 3 12.8 4.1 7.3 2 10.7 2 156.5 2h149.1c7.3-7.3 8.8-9.7 9.3-12.5 0.4-2.2 0.2-6.1-0.3-8.8-0.6-2.6-1.8-6.1-2.6-7.7-0.8-1.6-3.3-4.9-5.4-7.3-2.9-3.1-7.7-6.1-18-11.2l-14.1-7-28-84v-131.5c5.8-5 9.9-8.8 12.8-11.5 3-2.8 7.4-7.5 9.7-10.5 2.4-3 5.7-8.4 7.4-12 1.7-3.6 3.5-9.7 4.1-13.5 0.5-4 1-31.2 1-64.3 0-45-0.3-57.9-1.3-60.5-0.7-1.7-2.8-4.2-4.5-5.5-1.8-1.2-4.6-2.2-6.2-2.2-2.3 0-8.9 4.4-29.8 20l-26.7 20.1-34.5-0.1c-49.9-37.3-54-40-57-40-2.1 0.1-4.5 1-6.1 2.3z"/>
</svg>