<svg version="1.2" xmlns="http://www.w3.org/2000/svg" viewBox="0 0 512 512" width="16" height="16">
	<title>not-saved</title>
	<style>
		.s0 { fill: #000000 } 
	</style>
	<path id="Path 0" fill-rule="evenodd" class="s0" d="m149.5 32.3c9.7 0.3 20.5 1.1 25.3 2.1 4.5 0.9 13 3.2 18.9 5.1 6 1.9 15.1 5.6 20.3 8.2 5.2 2.7 12.7 7 16.5 9.5 3.8 2.6 11.2 8.3 25.5 20.8l8.8-7.7c4.8-4.2 13-10.4 18.2-13.9 5.2-3.4 13.3-8 18-10.2 4.7-2.1 12.1-5.1 16.5-6.6 4.4-1.4 13.4-3.7 20-5.1 9.6-2 14.9-2.5 26.5-2.5 11.5 0 17 0.5 26.5 2.5 6.6 1.3 15.6 3.6 20 5.1 4.4 1.4 12.5 4.8 18 7.4 5.5 2.7 13.1 7 17 9.6 3.9 2.5 10.6 7.7 15 11.4 4.4 3.7 11.2 10.5 15.1 15.1 3.9 4.6 9.8 12.4 13 17.4 3.2 5 7.5 12.6 9.5 17 2 4.4 5 12.3 6.7 17.5 1.7 5.2 4 14.4 5.1 20.5 1.4 7.5 2.1 15 2.1 23.8 0 9.2-0.7 16.3-2.4 26-1.4 7.2-4 17.9-5.9 23.7-1.9 5.8-5.6 15.2-8.2 21-2.5 5.8-6.9 14.6-9.7 19.5-2.8 4.9-7.6 12.8-10.6 17.5-3 4.7-8.6 12.8-12.5 18-3.9 5.2-11.3 14.7-16.6 21-5.3 6.3-17.7 19.8-27.6 29.9-9.9 10.1-23.6 23.4-30.5 29.5-6.9 6.2-18.4 16.1-25.5 22-7.1 6-21.6 17.2-32 25.1-10.4 7.8-26.6 19.4-36 25.8-9.4 6.3-20.7 13.7-25.3 16.6-6.7 4.2-9 5.1-12.7 5.1-3.6 0-6.1-1-12.2-4.7-4.3-2.5-15.9-10.1-25.8-16.7-9.9-6.6-25.2-17.4-34-24-8.8-6.5-21.8-16.7-29-22.4-7.2-5.8-18.2-15.1-24.5-20.6-6.3-5.4-21.4-19.9-33.5-32-12.2-12.2-26.4-27.3-31.6-33.6-5.3-6.3-12.9-16-17-21.5-4-5.5-10.5-14.9-14.3-21-3.8-6.1-9.5-15.9-12.6-22-3.1-6.1-7.5-15.7-9.8-21.5-2.2-5.8-5.2-14.8-6.5-20-1.4-5.2-3.2-13.6-4.1-18.5-0.9-5-1.6-14.6-1.6-21.5 0-8.2 0.7-16.4 2-23.7 1.1-6.2 3.4-15.7 5.1-21 1.7-5.4 4.8-13.4 6.8-17.8 2-4.4 6.3-12 9.5-17 3.2-4.9 9.1-12.8 13-17.4 3.9-4.6 10.7-11.4 15.1-15.1 4.4-3.7 12.1-9.4 17-12.6 5-3.2 12.6-7.5 17-9.5 4.4-2 12.4-5.1 17.8-6.8 5.3-1.7 13.9-3.8 19-4.7 5-0.9 9.4-1.8 9.7-2.1 0.3-0.2 8.1-0.3 17.5 0zm-31 35.7c-4.4 1.1-11.6 3.6-16 5.5-4.4 1.9-11.5 5.6-15.9 8.3-4.3 2.6-12.1 8.7-17.4 13.7-5.2 5-11.7 11.9-14.4 15.5-2.7 3.6-7.3 11.5-10.3 17.5-3 6.1-6.5 14.8-7.9 19.5-1.3 4.7-3 12.6-3.6 17.5-0.7 5.1-1 13.6-0.7 19.5 0.3 5.8 1.3 14.1 2.2 18.5 0.9 4.4 3.2 12.7 5.1 18.5 1.9 5.8 6.1 15.9 9.4 22.5 3.2 6.6 9.9 18.1 14.8 25.5 4.9 7.4 12 17.6 15.9 22.5 3.9 4.9 12 14.6 18 21.5 6.1 6.9 17.5 18.8 25.4 26.5 7.9 7.7 20.3 19.2 27.4 25.4 7.2 6.3 19.3 16.4 27 22.6 7.7 6.2 22.1 17.2 32 24.4 9.9 7.3 24.4 17.6 32.3 22.9l14.2 9.7c13.6-9.1 25.6-17.6 35.5-24.6 9.9-7.1 24.8-18.1 33.2-24.6 8.3-6.5 22.4-18.1 31.4-25.8 9-7.7 23.1-20.5 31.2-28.5 8.2-8 19.5-19.6 25.1-25.9 5.5-6.2 13.4-15.4 17.4-20.5 4-5 10.8-14.3 15.1-20.6 4.3-6.3 10.3-16 13.4-21.5 3-5.5 7.4-14.3 9.6-19.5 2.2-5.2 5.2-13.6 6.6-18.5 1.4-4.9 3.3-13.3 4-18.5 0.8-5.2 1.5-13 1.5-17.2 0-4.3-0.5-11.3-1.1-15.5-0.6-4.3-2.2-11.6-3.5-16.3-1.4-4.7-4.5-12.8-7-18-2.5-5.2-6.9-12.8-9.7-16.9-2.9-4.1-8.6-10.8-12.8-15-4.2-4.2-10.9-9.9-15-12.8-4.1-2.8-11.7-7.2-16.9-9.7-5.2-2.5-13.3-5.6-18-7-4.7-1.3-12-2.9-16.2-3.5-4.3-0.6-11.4-1.1-15.8-1.1-4.4 0-11.5 0.5-15.7 1.1-4.3 0.6-11.6 2.2-16.3 3.5-4.7 1.4-12.8 4.5-18 7-5.2 2.5-12.8 6.9-16.9 9.7-4.1 2.9-10.1 7.9-13.5 11.2-3.4 3.3-8.8 9.3-12.1 13.4-3.6 4.5-7.3 8-9.2 8.8-1.8 0.7-4.7 1.3-6.3 1.3-1.6 0-4.5-0.6-6.2-1.3-1.9-0.8-5.8-4.4-9.4-8.8-3.3-4.1-9.9-11-14.6-15.4-4.7-4.4-12.1-10.1-16.4-12.7-4.4-2.7-11.5-6.4-15.9-8.3-4.4-1.9-11.4-4.3-15.5-5.4-4.1-1-11-2.4-15.2-3-4.3-0.6-11.5-1-16-1-4.6 0.1-11 0.5-14.3 1-3.3 0.5-9.6 1.8-14 2.9z"/>
</svg>